<?xml version="1.0" encoding="UTF-8"?>
<svg id="Layer_1" data-name="Layer 1" xmlns="http://www.w3.org/2000/svg" viewBox="0 0 810.32 440">
  <defs>
    <style>
      .cls-1 {
        fill: #f4bd58;
      }

      .cls-2 {
        fill: #9153a1;
      }

      .cls-3 {
        fill: #666fb4;
      }

      .cls-4 {
        fill: #0bb27e;
      }
    </style>
  </defs>
  <path class="cls-3" d="M47.74,235.07c0-5.2,0-10.4,0-15.6,0-13.08,0-12.88-12.92-13.02-4.09-.05-4.52,1.52-4.49,4.94,.06,7.89,.08,15.78,.08,23.68h17.32Z"/>
  <path class="cls-3" d="M72.74,206.45c0-4.37,0-8.74,0-13.11,0-13,0-12.87-12.99-12.91-3.52-.01-4.46,.99-4.43,4.47,.06,7.18,.08,14.37,.09,21.55h17.32Z"/>
  <g>
    <path class="cls-3" d="M72.73,247.64c0-11.67,0-23.34,0-35.01h-17.31c0,9.58-.02,19.17-.02,28.75,0,2.09,0,4.18,0,6.26h17.33Z"/>
    <path class="cls-3" d="M55.4,253.81c0,12.35,0,24.69,0,37.04,0,11.93,0,11.72,11.88,11.98,4.4,.1,5.59-1.11,5.56-5.54-.08-14.5-.11-28.99-.12-43.49h-17.33Z"/>
  </g>
  <g>
    <path class="cls-3" d="M47.74,281.78c0-13.51,0-27.02,0-40.53H30.42c0,8.87-.02,17.75-.02,26.62,0,4.64,0,9.27,0,13.91h17.33Z"/>
    <path class="cls-3" d="M30.4,287.95c0,9.63,0,19.26,0,28.9,0,12.25,0,11.99,12.09,12.31,4.74,.13,5.36-1.62,5.34-5.72-.05-11.83-.07-23.65-.08-35.48H30.4Z"/>
  </g>
  <g>
    <path class="cls-3" d="M20.4,264.61c0-10.05,0-20.11,0-30.16,0-12.27,0-12.09-12.49-12.26-4.02-.05-4.94,1.21-4.92,5.04,.07,12.46,.09,24.92,.1,37.38H20.4Z"/>
    <path class="cls-3" d="M20.4,271.37v-.58H3.08c0,12.09-.02,24.18-.02,36.27,0,13.31,0,13.19,13.33,13.06,3.43-.03,4.1-1.22,4.07-4.34-.14-14.8-.06-29.6-.06-44.4Z"/>
  </g>
  <path class="cls-3" d="M99.72,275.48h-17.32c0,10.65,0,21.31,0,31.96,0,12.75,0,12.61,12.67,12.68,3.74,.02,4.79-1.02,4.75-4.77-.13-13.29-.12-26.58-.1-39.87Z"/>
  <g>
    <path class="cls-3" d="M99.74,231.98c0-7.36,0-14.73,0-22.09,0-12.41,0-12.23-12.5-12.43-4.02-.06-4.94,1.15-4.92,5.02,.04,9.83,.06,19.67,.07,29.5h17.35Z"/>
    <path class="cls-3" d="M82.4,238.16c.01,10.38,.01,20.76,0,31.14h17.32c0-3.48,0-6.95,0-10.43,0-6.9,0-13.81,0-20.71h-17.34Z"/>
  </g>
  <g>
    <path class="cls-3" d="M125.2,256.9h-17.63c0,7.68,.01,15.36,.04,23.05,.02,4.24-1.98,10.04,.99,12.32,2.76,2.12,8.3,.47,12.58,.82,3.43,.28,4.13-1.11,4.09-4.27-.11-10.64-.09-21.28-.08-31.92Z"/>
    <path class="cls-3" d="M125.21,250.73c0-1.45,0-2.91,0-4.36,0-11.32,0-22.64,0-33.97,0-13.31,0-13.14-13.13-13.24-3.94-.03-4.61,1.32-4.59,4.87,.08,15.57,.08,31.13,.08,46.7h17.64Z"/>
  </g>
  <path class="cls-3" d="M151.72,297.83h-17.32c0,8.74,0,17.49,0,26.23,0,13.34,0,13.22,13.25,13.06,3.37-.04,4.18-1.16,4.15-4.33-.1-11.65-.09-23.3-.07-34.95Z"/>
  <path class="cls-3" d="M159.39,272.39h17.32c0-9.06,0-18.11,0-27.17,0-13.25,0-13.13-13.3-13.05-3.36,.02-4.13,1.08-4.11,4.25,.1,11.99,.09,23.98,.08,35.97Z"/>
  <g>
    <path class="cls-3" d="M176.74,313.68c-.02-11.7-.02-23.41-.02-35.11h-17.32c0,3.26,0,6.51,0,9.77,0,8.45,0,16.9,0,25.34h17.35Z"/>
    <path class="cls-3" d="M159.38,319.85c0,4.3,0,8.61,0,12.91,0,12.38,0,12.21,12.46,12.36,3.99,.05,4.98-1.18,4.96-5.05-.03-6.74-.04-13.48-.06-20.21h-17.37Z"/>
  </g>
  <path class="cls-3" d="M185.55,294.74c0,4.42,0,8.83,0,13.25,0,12.06,0,11.78,12.16,12.17,4.86,.16,5.59-1.56,5.58-5.87-.02-6.52-.03-13.03-.04-19.55h-17.69Z"/>
  <g>
    <path class="cls-3" d="M151.73,250.73c0-1.93,0-3.86,0-5.79,0-12.77,0-12.57-12.59-12.79-4.13-.07-4.85,1.32-4.83,5.06,.02,4.51,.03,9.01,.04,13.52h17.38Z"/>
    <path class="cls-3" d="M134.37,256.9c.02,11.58,.03,23.17,.03,34.75h17.33c0-2.43,0-4.86,0-7.29,0-9.15,0-18.31,0-27.46h-17.36Z"/>
  </g>
  <path class="cls-3" d="M185.56,241.25c0,1.43,0,2.87,0,4.3,0,14.34,0,28.68,0,43.01h17.68c-.03-15.77-.03-31.55-.03-47.32h-17.64Z"/>
  <g>
    <path class="cls-3" d="M203.17,194.38c0-3.15,0-6.3,0-9.45,0-4.27,1.88-9.84-.85-12.47-2.71-2.61-8.26-.39-12.52-.86-3.7-.41-4.33,1.21-4.31,4.53,.03,6.08,.04,12.17,.05,18.25h17.63Z"/>
    <path class="cls-3" d="M185.55,200.55c.01,11.51,.01,23.01,0,34.52h17.64c0-11.51-.01-23.01-.02-34.52h-17.62Z"/>
  </g>
  <path class="cls-1" d="M229.36,155.76c0-8.22,0-16.44,0-24.66,0-11.52,0-11.29-11.28-11.56-4.41-.1-5.09,1.51-5.07,5.43,.05,10.26,.07,20.52,.08,30.79h16.27Z"/>
  <path class="cls-1" d="M229.36,227.04c0-21.7,0-43.41,0-65.11h-16.26c.01,19.15,0,38.3,0,57.44,0,2.56,0,5.11,0,7.67h16.27Z"/>
  <g>
    <path class="cls-1" d="M229.42,285.37c-.03-17.38-.05-34.77-.06-52.15h-16.27c0,17.38,0,34.77,0,52.15h16.33Z"/>
    <path class="cls-1" d="M213.09,291.55c0,5.75,0,11.49,0,17.24,0,10.99,0,10.77,10.86,11.06,4.31,.11,5.54-.93,5.53-5.43-.02-7.62-.03-15.25-.05-22.87h-16.34Z"/>
  </g>
  <path class="cls-1" d="M240.09,260.95c0,7.64,0,15.27,0,22.91,0,10.73,.01,10.41,10.56,10.86,5.11,.22,5.83-1.56,5.82-6.13-.02-9.21-.03-18.42-.05-27.64h-16.33Z"/>
  <g>
    <path class="cls-1" d="M240.09,186.27h16.27c0-26.87,0-53.75,0-80.62,0-11.27,0-11.07-11.49-11.29-4.11-.08-4.88,1.31-4.86,5.07,.12,28.95,.09,57.89,.08,86.84Z"/>
    <path class="cls-1" d="M240.09,192.45c0,.65,0,1.3,0,1.95,0,20.13,0,40.25,0,60.38h16.32c-.03-20.78-.04-41.55-.04-62.33h-16.27Z"/>
  </g>
  <path class="cls-1" d="M282.36,151.47v-21.04c0-10.81,0-10.55-10.96-10.89-4.62-.15-5.41,1.41-5.4,5.63,.03,8.77,.05,17.54,.06,26.31h16.3Z"/>
  <g>
    <path class="cls-1" d="M266.09,220.53h16.25c0-8.88,.01-17.76,.01-26.64,0-12.09,0-24.17,0-36.26h-16.29c.03,20.96,.03,41.93,.02,62.89Z"/>
    <path class="cls-1" d="M282.34,226.71h-16.25c0,9.8,0,19.6,0,29.39,0,11.63,0,11.43,11.79,11.6,3.95,.06,4.58-1.3,4.56-4.83-.08-12.05-.09-24.11-.09-36.16Z"/>
  </g>
  <path class="cls-1" d="M308.64,130.67c0-5.61,0-11.22,0-16.84,0-11.64,0-11.46-11.72-11.63-3.81-.05-4.66,1.04-4.65,4.73,.04,7.91,.06,15.83,.08,23.74h16.29Z"/>
  <path class="cls-1" d="M335.46,168.08c0-3.85,0-7.71,0-11.56,0-10.86,0-10.6-10.92-10.95-4.61-.15-5.4,1.37-5.39,5.6,.02,5.64,.02,11.27,.03,16.91h16.27Z"/>
  <path class="cls-1" d="M360.63,217.67c0-6.06,0-12.13,0-18.19,0-11.4,0-11.22-11.45-11.43-3.96-.07-4.94,1.07-4.92,4.97,.04,8.22,.07,16.43,.08,24.65h16.29Z"/>
  <path class="cls-1" d="M344.35,286.84h16.28c0-21,0-42,0-62.99h-16.28c.03,21,0,42,0,62.99Z"/>
  <g>
    <path class="cls-1" d="M344.35,345.13v33.23c0,10.39,0,10.11,10.36,10.49,4.84,.18,6.05-1.19,6.04-6.03-.04-12.56-.06-25.13-.08-37.69h-16.32Z"/>
    <path class="cls-1" d="M360.66,338.96c-.02-15.31-.03-30.63-.03-45.94h-16.28c0,15.31,0,30.63,0,45.94h16.31Z"/>
  </g>
  <path class="cls-1" d="M370.61,379.04c0,14.57,0,29.13,0,43.7,0,11,0,10.8,11.06,11.25,4.38,.18,5.54-1.01,5.52-5.47-.06-16.5-.09-32.99-.1-49.49h-16.48Z"/>
  <path class="cls-1" d="M412.45,285.48c0-16.86,0-33.72,0-50.58,0-11.21,0-11.01-11.11-11.27-4.22-.1-5.21,1.18-5.2,5.27,.06,18.86,.08,37.72,.09,56.58h16.21Z"/>
  <path class="cls-1" d="M292.36,190.53h16.27c0-17.89,0-35.79,0-53.68h-16.28c.02,17.89,.01,35.79,0,53.68Z"/>
  <g>
    <path class="cls-1" d="M308.69,265.05c-.03-22.78-.05-45.56-.05-68.35h-16.28c0,1.73,0,3.46,0,5.18,0,21.05,0,42.11,0,63.16h16.33Z"/>
    <path class="cls-1" d="M292.36,271.22v20.62c0,10.87,0,10.63,10.89,10.94,4.46,.13,5.51-1.15,5.5-5.53-.02-8.67-.03-17.35-.04-26.02h-16.34Z"/>
  </g>
  <g>
    <path class="cls-1" d="M335.45,242.18h-16.2c0,19.41,0,38.82,0,58.24,0,11.43,0,11.22,11.42,11.43,4.1,.07,4.89-1.31,4.87-5.08-.13-21.53-.1-43.06-.09-64.59Z"/>
    <path class="cls-1" d="M335.46,236c0-2.2,0-4.41,0-6.61,0-18.38,0-36.76,0-55.14h-16.26c.04,20.58,.05,41.17,.05,61.75h16.2Z"/>
  </g>
  <g>
    <path class="cls-1" d="M370.63,322.99h16.45c0-14.27,0-28.55,0-42.82,0-12.05,0-11.88-11.83-12.03-3.78-.05-4.74,1.02-4.72,4.74,.1,16.7,.11,33.41,.1,50.11Z"/>
    <path class="cls-1" d="M370.62,329.16c0,7.22-.01,14.43-.01,21.65,0,7.35,0,14.71,0,22.06h16.48c-.01-14.57-.01-29.14-.01-43.71h-16.45Z"/>
  </g>
  <g>
    <path class="cls-1" d="M412.43,346.26c-.01-14.64,.01-29.27,.01-43.91,0-3.57,0-7.13,0-10.7h-16.21c0,18.2,0,36.41,0,54.61h16.2Z"/>
    <path class="cls-1" d="M396.24,352.44c0,5.63,0,11.25,0,16.88,0,11.51,0,11.32,11.35,11.51,4,.07,4.97-1.15,4.94-5.02-.05-7.79-.08-15.58-.09-23.37h-16.21Z"/>
  </g>
  <path class="cls-4" d="M441.33,249.19c0-15.17,.02-30.33,.08-45.5,.01-3.38-.68-4.86-4.34-4.49-3.13,.32-6.35,.32-9.48,0-3.68-.37-4.33,1.14-4.32,4.51,.02,15.16,.02,30.33,.03,45.49h18.03Z"/>
  <g>
    <path class="cls-4" d="M441.33,332.59h-18c0,23.98-.02,47.95-.05,71.93,0,3.33,.66,4.92,4.33,4.55,2.97-.3,6.02-.35,8.98,0,4.19,.5,4.84-1.36,4.83-5.07-.09-23.8-.09-47.61-.08-71.41Z"/>
    <path class="cls-4" d="M441.33,326.42c0-7.44,0-14.88,0-22.32,0-16.24-.01-32.49,0-48.73h-18.02c.02,23.69,.02,47.37,.02,71.06h18Z"/>
  </g>
  <path class="cls-4" d="M449.97,285.65c0,15.72,0,31.43,0,47.15,0,12.25,0,12.02,12.11,12.32,4.7,.12,5.71-1.37,5.7-5.84-.04-17.88-.06-35.75-.08-53.63h-17.74Z"/>
  <g>
    <path class="cls-4" d="M467.69,168.08c0-12.21,0-24.43,0-36.64,0-12.78,0-12.59-12.61-12.8-4.25-.07-5.21,1.25-5.2,5.33,.06,14.71,.09,29.41,.09,44.12h17.71Z"/>
    <path class="cls-4" d="M467.69,174.25h-17.7c0,19.04-.01,38.09,0,57.13,0,16.03,0,32.07,0,48.1h17.73c-.03-35.08-.03-70.15-.02-105.23Z"/>
  </g>
  <path class="cls-4" d="M472.98,88.18h17.7c0-16.9,0-33.81,0-50.71,0-12.8,0-12.62-12.59-12.84-4.23-.07-5.23,1.21-5.22,5.31,.09,19.41,.11,38.83,.1,58.24Z"/>
  <path class="cls-4" d="M502.19,132.16c0,29.24,0,58.48,0,87.71,0,11.88,.02,11.55,11.91,12.01,5.36,.21,6.15-1.64,6.14-6.43-.07-31.1-.09-62.19-.1-93.29h-17.95Z"/>
  <g>
    <path class="cls-4" d="M520.13,39.52c0-7.99,0-15.99,0-23.98,0-12.37,0-12.11-12.45-12.47-4.86-.14-5.6,1.59-5.59,5.9,.04,10.19,.07,20.37,.08,30.56h17.95Z"/>
    <path class="cls-4" d="M502.19,45.7c.02,23.74,0,47.48,0,71.22,0,3.02,0,6.04,0,9.07h17.94c0-26.76,0-53.52,0-80.29h-17.94Z"/>
  </g>
  <path class="cls-4" d="M528.36,177.34c0,2.34,0,4.69,0,7.03,0,4.26-1.94,10.08,.92,12.37,2.68,2.14,8.28,.42,12.54,.86,3.96,.41,4.6-1.22,4.57-4.77-.04-5.16-.07-10.32-.08-15.49h-17.96Z"/>
  <path class="cls-4" d="M571.67,64.44c0-6.76,0-13.51,0-20.27,0-11.58,0-11.33-11.74-11.68-4.75-.14-6.11,1.02-6.1,5.95,.03,8.67,.04,17.33,.05,26h17.78Z"/>
  <path class="cls-4" d="M598.09,116.45c0-6.05,0-12.11,0-18.17,0-4.11,1.8-9.4-.78-12.04-2.6-2.65-7.92-.38-12-.91-4.16-.54-5.25,.94-5.22,5.12,.05,8.66,.08,17.32,.1,25.99h17.92Z"/>
  <g>
    <path class="cls-4" d="M580.18,183.19h17.93c0-20.19,0-40.37-.02-60.56h-17.91c.03,20.19,0,40.37,0,60.56Z"/>
    <path class="cls-4" d="M580.18,189.36c0,27.48,0,54.95,.01,82.43,0,3.98-1.33,9.18,.65,11.62,2.35,2.87,7.81,.52,11.86,1.09,4.36,.61,5.54-.91,5.53-5.38-.08-29.92-.1-59.83-.12-89.75h-17.93Z"/>
  </g>
  <path class="cls-4" d="M605.32,209.1h17.97c0-14.7-.01-29.4-.03-44.1,0-4.26,1.89-9.82-.88-12.44-2.74-2.6-8.28-.37-12.54-.86-3.92-.45-4.63,1.17-4.61,4.78,.09,17.54,.1,35.09,.09,52.63Z"/>
  <g>
    <path class="cls-4" d="M605.31,280.1c0,14.72,0,29.43,0,44.15,0,12.81,0,12.62,12.97,12.86,4.31,.08,5.12-1.32,5.11-5.33-.04-17.23-.06-34.46-.07-51.68h-18.01Z"/>
    <path class="cls-4" d="M623.31,273.93c-.01-19.55-.01-39.1-.02-58.66h-17.97c0,9.69,0,19.39,0,29.08s0,19.72,0,29.58h18Z"/>
  </g>
  <g>
    <path class="cls-4" d="M490.73,194.38c-.03-33.34-.05-66.68-.04-100.02h-17.7c0,13.52-.01,27.03-.01,40.55,0,19.82,0,39.64,0,59.47h17.76Z"/>
    <path class="cls-4" d="M472.97,200.55c0,11.11,0,22.22,0,33.33,0,12.26,0,12.02,12.09,12.35,4.69,.13,5.73-1.32,5.72-5.82-.03-13.29-.03-26.57-.05-39.86h-17.77Z"/>
  </g>
  <g>
    <path class="cls-4" d="M546.33,96.02c0-5.53-.02-11.05-.05-16.58-.03-4.26,1.91-9.92-.92-12.39-2.4-2.1-7.94-.38-12.03-.84-4.35-.49-5.1,1.27-5.09,5.27,.03,8.18,.06,16.36,.07,24.53h18.03Z"/>
    <path class="cls-4" d="M528.31,102.2c.03,22.99,.02,45.98,.04,68.97h17.96c-.02-13.09,.01-26.18,.01-39.27,0-9.9,.02-19.8,.01-29.69h-18.02Z"/>
  </g>
  <path class="cls-4" d="M571.67,139.9c0-2.59,0-5.18,0-7.76,0-20.51,0-41.02,0-61.52h-17.77c.04,23.1,.05,46.19,.05,69.29h17.71Z"/>
  <g>
    <path class="cls-4" d="M571.7,209.1c-.06-21.01-.04-42.01-.03-63.02h-17.7c0,21.01,0,42.01,0,63.02h17.74Z"/>
    <path class="cls-4" d="M553.96,215.27c0,1.37,0,2.74,0,4.11,0,12.43,0,12.26,12.49,12.45,4.09,.06,5.35-.99,5.32-5.22-.02-3.78-.03-7.56-.05-11.34h-17.77Z"/>
  </g>
  <path class="cls-2" d="M632.88,258.45c0,11.28,0,22.56,0,33.84,0,11.95,0,11.76,11.9,11.94,3.89,.06,4.61-1.17,4.6-4.78-.07-13.66-.09-27.33-.09-40.99h-16.41Z"/>
  <g>
    <path class="cls-2" d="M674.28,293.28h-16.39c0,2.68,0,5.37,0,8.05,0,10.81,0,21.62,0,32.43,0,11.3,0,11.14,11.49,11.33,3.78,.06,5.07-.76,5.03-4.85-.15-15.65-.14-31.31-.12-46.97Z"/>
    <path class="cls-2" d="M657.89,287.1h16.39c0-5.41,.01-10.81,.01-16.22,0-12.82,0-12.69-12.67-12.52-3.23,.04-3.84,1.14-3.81,4.05,.08,8.23,.08,16.46,.07,24.69Z"/>
  </g>
  <path class="cls-2" d="M700.13,265.05c0-4.06,0-8.11,0-12.17,0-11.56,0-11.36-11.66-11.63-4.25-.1-5.14,1.21-5.12,5.28,.03,6.17,.05,12.34,.06,18.52h16.71Z"/>
  <g>
    <path class="cls-2" d="M683.47,312.31h16.66c0-3.48,0-6.96,0-10.45,0-10.21,0-20.43,0-30.64h-16.69c.03,13.69,.03,27.39,.03,41.08Z"/>
    <path class="cls-2" d="M700.12,318.48h-16.66c0,10.67-.01,21.34-.01,32.01,0,12.75,0,12.62,12.67,12.6,3.38,0,4.1-1.07,4.08-4.25-.1-13.45-.09-26.91-.08-40.36Z"/>
  </g>
  <path class="cls-2" d="M711.17,247.64h16.26c0-6.74,0-13.48,0-20.22,0-12.2,0-12.04-12.05-12.15-3.61-.03-4.35,1.1-4.31,4.49,.09,9.29,.1,18.59,.1,27.88Z"/>
  <path class="cls-2" d="M754.43,264.61c0-9.86,0-19.73,0-29.59,0-11.45,0-11.22-11.32-11.52-4.42-.12-5.07,1.46-5.05,5.39,.05,11.91,.07,23.81,.08,35.72h16.29Z"/>
  <g>
    <path class="cls-2" d="M754.41,302.61c0-6.2,.01-12.41,.02-18.61,0-4.4,0-8.81,0-13.21h-16.28c0,10.61,0,21.21,0,31.82h16.27Z"/>
    <path class="cls-2" d="M754.4,308.79h-16.26c0,8.18,0,16.37,0,24.55,0,11.76,0,11.54,11.57,11.77,4.23,.09,4.81-1.5,4.78-5.14-.09-10.39-.1-20.79-.09-31.18Z"/>
  </g>
  <g>
    <path class="cls-2" d="M780.08,287.4h-16.64c0,6.82,0,13.64,0,20.45,0,12.24,0,12.09,12.01,12.24,3.61,.05,4.82-.7,4.76-4.6-.13-9.36-.15-18.73-.14-28.09Z"/>
    <path class="cls-2" d="M763.44,281.22h16.64c.01-5.73,.02-11.47,.02-17.2,0-13.08,0-12.94-13.01-12.76-3.35,.05-3.75,1.32-3.71,4.12,.11,8.61,.07,17.23,.06,25.84Z"/>
  </g>
  <g>
    <path class="cls-2" d="M790.59,305.52h16.65c0-5.18,0-10.36,0-15.54,0-12.69,0-12.54-12.7-12.53-3.43,0-4.08,1.14-4.04,4.26,.1,7.93,.1,15.87,.08,23.8Z"/>
    <path class="cls-2" d="M807.24,311.7h-16.65c0,2.81-.01,5.63-.01,8.44,0,10.31,0,20.62,0,30.94,0,12.05,0,11.87,12.15,12.04,3.86,.05,4.64-1.13,4.61-4.77-.12-15.55-.11-31.1-.1-46.65Z"/>
  </g>
  <g>
    <path class="cls-2" d="M727.42,285.48c0-10.55,0-21.11,0-31.66h-16.26c0,6.12-.02,12.24-.02,18.35,0,4.44,0,8.87,0,13.31h16.28Z"/>
    <path class="cls-2" d="M711.15,291.65c0,8.65,0,17.29,0,25.94,0,11.91,0,11.71,11.8,11.92,3.9,.07,4.58-1.17,4.57-4.75-.05-11.03-.07-22.06-.08-33.1h-16.28Z"/>
  </g>
  <g>
    <path class="cls-2" d="M649.3,217.45c0-2.63,0-5.25,0-7.88,0-12.49,0-12.37-12.33-12.34-3.27,0-4.19,.93-4.16,4.19,.05,5.34,.07,10.69,.08,16.03h16.4Z"/>
    <path class="cls-2" d="M632.9,223.62c0,8.91-.02,17.82-.02,26.72v1.93h16.4c0-9.55,0-19.1,0-28.65h-16.39Z"/>
  </g>
</svg>