<?xml version="1.0" encoding="UTF-8"?>
<svg id="Layer_1" data-name="Layer 1" xmlns="http://www.w3.org/2000/svg" viewBox="0 0 853 457">
  <defs>
    <style>
      .cls-1 {
        fill: #6772e5;
      }

      .cls-2 {
        fill: #f5be58;
      }

      .cls-3 {
        fill: #9251ac;
      }

      .cls-4 {
        fill: #06b27d;
      }
    </style>
  </defs>
  <path class="cls-4" d="M530.85,133.55c0-35.98,.07-71.97-.09-107.95-.02-4.3,.72-6.04,5.59-5.9,12.44,.36,12.45,.1,12.45,12.47,0,69.97-.05,139.94,.1,209.91,.01,4.79-.78,6.64-6.13,6.43-11.89-.46-11.91-.14-11.91-12.01,0-34.32,0-68.64,0-102.96Z"/>
  <path class="cls-4" d="M478.63,248.02c0-35.81,.06-71.61-.09-107.42-.02-4.07,.94-5.4,5.2-5.33,12.61,.22,12.61,.03,12.61,12.8,0,69.28-.04,138.56,.1,207.85,0,4.48-1,5.96-5.7,5.84-12.1-.31-12.11-.07-12.11-12.32,0-33.81,0-67.62,0-101.42Z"/>
  <path class="cls-4" d="M469.99,320.73c0,33.3-.05,66.61,.08,99.91,.01,3.71-.64,5.57-4.83,5.07-2.96-.35-6.01-.31-8.98,0-3.67,.37-4.33-1.22-4.33-4.55,.09-66.94,.09-133.88,0-200.82,0-3.36,.65-4.88,4.32-4.51,3.13,.32,6.35,.32,9.48,0,3.66-.37,4.35,1.11,4.34,4.49-.12,33.47-.07,66.94-.07,100.41Z"/>
  <path class="cls-4" d="M501.63,151.55c0-34.99,.07-69.98-.09-104.97-.02-4.1,.98-5.38,5.22-5.31,12.59,.22,12.59,.03,12.59,12.84,0,67.65-.04,135.29,.1,202.94,0,4.5-1.03,5.95-5.72,5.82-12.09-.33-12.09-.09-12.09-12.35,0-32.99,0-65.98,0-98.97Z"/>
  <path class="cls-4" d="M608.84,201.01c0-31.3,.08-62.61-.1-93.91-.03-4.19,1.07-5.67,5.22-5.12,4.08,.53,9.4-1.74,12,.91,2.59,2.64,.78,7.93,.78,12.04,.06,60.27-.02,120.55,.15,180.82,.01,4.47-1.17,5.99-5.53,5.38-4.05-.56-9.51,1.79-11.86-1.09-1.99-2.43-.65-7.64-.65-11.62-.02-29.14-.01-58.28-.01-87.42Z"/>
  <path class="cls-4" d="M600.33,148.78c0,31.49-.08,62.98,.1,94.47,.02,4.23-1.23,5.29-5.32,5.22-12.48-.19-12.49-.02-12.49-12.45,0-60.31,.07-120.63-.12-180.94-.01-4.93,1.35-6.09,6.1-5.95,11.74,.35,11.74,.11,11.74,11.68,0,29.32,0,58.65,0,87.97Z"/>
  <path class="cls-4" d="M633.97,260.99c0-29.3,.06-58.59-.08-87.89-.02-3.6,.68-5.23,4.61-4.78,4.26,.49,9.79-1.73,12.54,.86,2.77,2.62,.88,8.18,.88,12.44,.06,55.6,0,111.19,.13,166.79,0,4.01-.8,5.41-5.11,5.33-12.96-.25-12.97-.05-12.97-12.86,0-26.63,0-53.27,0-79.9Z"/>
  <path class="cls-2" d="M268.75,211.04c0-31.66,.06-63.31-.08-94.97-.02-3.76,.75-5.15,4.86-5.07,11.48,.22,11.49,.02,11.49,11.29,0,60.98-.05,121.96,.1,182.93,.01,4.58-.71,6.35-5.82,6.13-10.54-.45-10.56-.12-10.56-10.86,0-29.82,0-59.64,0-89.47Z"/>
  <path class="cls-2" d="M321.02,218.52c0-31.65,.06-63.3-.09-94.95-.02-3.68,.84-4.78,4.65-4.73,11.72,.17,11.72,0,11.72,11.63,0,61.14-.05,122.28,.1,183.41,.01,4.38-1.04,5.66-5.5,5.53-10.88-.31-10.89-.07-10.89-10.94,0-29.99,0-59.97,0-89.96Z"/>
  <path class="cls-2" d="M241.76,236.01c0-31.47,.07-62.94-.08-94.41-.02-3.92,.66-5.53,5.07-5.43,11.28,.27,11.28,.04,11.28,11.56,0,61.11-.06,122.21,.11,183.32,.01,4.5-1.21,5.54-5.53,5.43-10.85-.28-10.86-.07-10.86-11.06,0-29.8,0-59.61,0-89.41Z"/>
  <path class="cls-2" d="M373.01,304.58c0-31.64,.07-63.28-.09-94.92-.02-3.9,.96-5.04,4.93-4.97,11.44,.21,11.45,.02,11.45,11.43,0,61.11-.06,122.23,.12,183.34,.01,4.84-1.2,6.2-6.04,6.03-10.35-.37-10.36-.1-10.36-10.49,0-30.14,0-60.28,0-90.42Z"/>
  <path class="cls-2" d="M399.27,367.45c0-25.98,.08-51.95-.09-77.93-.02-3.73,.94-4.79,4.72-4.74,11.83,.15,11.83-.02,11.83,12.03,0,49.46-.06,98.91,.12,148.37,.02,4.46-1.14,5.65-5.52,5.47-11.05-.45-11.06-.25-11.06-11.25,0-23.98,0-47.96,0-71.94Z"/>
  <path class="cls-1" d="M214.21,262.19c0-23.14,.06-46.28-.07-69.43-.02-3.32,.61-4.93,4.31-4.53,4.26,.47,9.81-1.75,12.52,.86,2.73,2.63,.85,8.2,.85,12.47,.06,43.12-.02,86.24,.13,129.36,.01,4.3-.71,6.02-5.58,5.87-12.15-.39-12.16-.12-12.16-12.17,0-20.81,0-41.62,0-62.43Z"/>
  <path class="cls-2" d="M364.12,246.03c0,25.79-.07,51.58,.08,77.37,.02,3.77-.77,5.16-4.87,5.08-11.41-.21-11.41,0-11.42-11.43,0-49.75,.05-99.5-.1-149.25-.01-4.23,.78-5.75,5.39-5.6,10.91,.35,10.92,.09,10.92,10.95,0,24.29,0,48.59,0,72.88Z"/>
  <path class="cls-2" d="M441.11,318.99c0,24.49-.08,48.97,.09,73.46,.03,3.87-.95,5.09-4.94,5.02-11.35-.19-11.35,0-11.35-11.51,0-46.81,.05-93.61-.09-140.42-.01-4.09,.97-5.37,5.2-5.27,11.1,.26,11.11,.05,11.11,11.27,0,22.49,0,44.97,0,67.46Z"/>
  <path class="cls-2" d="M311.02,210.54c0,22.99-.07,45.98,.08,68.97,.02,3.54-.61,4.89-4.56,4.83-11.78-.17-11.79,.03-11.79-11.6,0-43.65,.06-87.3-.09-130.94-.01-4.22,.78-5.77,5.4-5.63,10.96,.35,10.96,.08,10.96,10.89,0,21.16,0,42.31,0,63.47Z"/>
  <path class="cls-4" d="M574.98,148.53c0,20.31-.08,40.62,.08,60.93,.03,3.56-.61,5.18-4.57,4.77-4.27-.44-9.87,1.28-12.54-.86-2.85-2.29-.91-8.1-.92-12.37-.07-37.63,.02-75.25-.13-112.88-.02-4,.74-5.76,5.09-5.27,4.1,.46,9.63-1.26,12.03,.84,2.83,2.47,.9,8.13,.92,12.39,.11,17.48,.04,34.96,.04,52.44Z"/>
  <path class="cls-1" d="M59.06,284.51c0-18.83,.07-37.65-.07-56.48-.03-3.42,.4-4.99,4.49-4.94,12.91,.14,12.92-.05,12.92,13.02,0,34.65-.06,69.3,.08,103.96,.02,4.1-.6,5.85-5.34,5.72-12.08-.32-12.08-.06-12.09-12.31,0-16.33,0-32.65,0-48.98Z"/>
  <path class="cls-1" d="M128.4,275.51c0,18.83-.1,37.65,.09,56.47,.04,3.75-1.01,4.79-4.75,4.77-12.68-.07-12.67,.08-12.67-12.68,0-34.98,.06-69.97-.08-104.95-.02-3.86,.9-5.08,4.92-5.02,12.5,.2,12.5,.02,12.5,12.43,0,16.33,0,32.65,0,48.98Z"/>
  <path class="cls-3" d="M728.79,318.5c0,18.99-.07,37.99,.07,56.98,.02,3.18-.7,4.25-4.08,4.25-12.67,.02-12.67,.15-12.67-12.6,0-34.66,.07-69.31-.1-103.97-.02-4.07,.87-5.37,5.12-5.28,11.66,.27,11.66,.06,11.66,11.63,0,16.33,0,32.66,0,48.98Z"/>
  <path class="cls-1" d="M84.06,258.01c0-18.83,.09-37.65-.08-56.48-.03-3.48,.91-4.48,4.43-4.47,12.99,.05,12.99-.09,12.99,12.91,0,34.65-.08,69.31,.11,103.96,.02,4.44-1.16,5.64-5.56,5.54-11.88-.26-11.88-.05-11.88-11.98,0-16.49,0-32.99,0-49.48Z"/>
  <path class="cls-3" d="M783.09,300.64c0,18.66-.08,37.32,.07,55.97,.03,3.65-.55,5.23-4.78,5.14-11.57-.24-11.57-.02-11.57-11.77,0-34.82,.06-69.63-.09-104.45-.02-3.93,.63-5.5,5.05-5.39,11.32,.3,11.32,.06,11.32,11.52,0,16.33,0,32.65,0,48.98Z"/>
  <path class="cls-1" d="M188.04,304.97c0-17.3,.07-34.61-.07-51.91-.03-3.17,.75-4.23,4.11-4.25,13.3-.07,13.3-.2,13.3,13.05,0,31.61-.06,63.23,.08,94.84,.02,3.88-.97,5.1-4.96,5.05-12.46-.15-12.46,.02-12.46-12.36,0-14.81,0-29.62,0-44.43Z"/>
  <path class="cls-3" d="M739.81,288.81c0-17.47,.09-34.94-.08-52.41-.03-3.38,.7-4.52,4.31-4.49,12.05,.1,12.05-.05,12.05,12.15,0,32.44-.06,64.89,.08,97.33,.02,3.59-.67,4.82-4.57,4.75-11.8-.2-11.8,0-11.8-11.92,0-15.14,0-30.28,0-45.42Z"/>
  <path class="cls-1" d="M180.39,301c0,16.14-.07,32.28,.06,48.42,.03,3.17-.78,4.29-4.15,4.33-13.25,.16-13.25,.28-13.25-13.06,0-28.95,.06-57.9-.08-86.85-.02-3.74,.71-5.13,4.83-5.06,12.58,.21,12.59,.02,12.59,12.79,0,13.14,0,26.29,0,39.43Z"/>
  <path class="cls-3" d="M661.54,266.98c0-16.31,.09-32.62-.07-48.93-.03-3.26,.89-4.18,4.16-4.19,12.33-.03,12.33-.15,12.33,12.34,0,29.96-.06,59.92,.08,89.87,.02,3.62-.7,4.84-4.6,4.78-11.9-.18-11.9,0-11.9-11.94,0-13.98,0-27.96,0-41.94Z"/>
  <path class="cls-1" d="M153.87,263c0,14.15-.09,28.31,.07,42.46,.03,3.15-.66,4.55-4.09,4.27-4.29-.35-9.82,1.3-12.58-.82-2.97-2.28-.97-8.08-.99-12.32-.1-25.31,.02-50.62-.12-75.92-.02-3.54,.65-4.9,4.59-4.87,13.13,.11,13.13-.07,13.13,13.24,0,11.32,0,22.64,0,33.97Z"/>
  <path class="cls-1" d="M49.06,288.01c0,14.8-.08,29.6,.06,44.4,.03,3.12-.64,4.31-4.07,4.34-13.33,.13-13.33,.25-13.33-13.06,0-26.61,.07-53.22-.08-79.82-.02-3.83,.9-5.09,4.92-5.04,12.49,.17,12.49,0,12.49,12.26,0,12.31,0,24.61,0,36.92Z"/>
  <path class="cls-3" d="M819.23,336.78c0-12.81,.09-25.61-.06-38.42-.04-3.12,.62-4.26,4.04-4.26,12.7-.01,12.7-.16,12.7,12.53,0,22.79-.08,45.57,.09,68.36,.03,3.64-.75,4.82-4.61,4.77-12.15-.17-12.15,0-12.15-12.04,0-10.31,0-20.62,0-30.94Z"/>
  <path class="cls-3" d="M686.54,317.97c0-12.97,.08-25.95-.06-38.92-.03-2.91,.58-4,3.81-4.05,12.67-.17,12.67-.3,12.67,12.52,0,23.12-.11,46.24,.1,69.36,.04,4.1-1.25,4.91-5.03,4.85-11.49-.19-11.49-.04-11.49-11.33,0-10.81,0-21.62,0-32.43Z"/>
  <path class="cls-3" d="M792.1,302c0-9.99,.08-19.99-.05-29.98-.04-2.8,.36-4.08,3.71-4.12,13.01-.18,13.01-.32,13.01,12.76,0,17.16-.14,34.32,.1,51.47,.05,3.9-1.15,4.65-4.76,4.6-12.01-.15-12.01,0-12.01-12.24,0-7.5,0-14.99,0-22.49Z"/>
</svg>