<svg version="1.2" xmlns="http://www.w3.org/2000/svg" viewBox="0 0 169 150" width="169" height="150">
	<title>UNRCP-light-svg</title>
	<style>
		.s0 { fill: #ffffff } 
		.s1 { fill: #e5243b } 
		.s2 { fill: #4c9f38 } 
		.s3 { fill: #ff3a21 } 
		.s4 { fill: #fcc30b } 
		.s5 { fill: #fd6925 } 
		.s6 { fill: #fd9d24 } 
		.s7 { fill: #3f7e44 } 
		.s8 { fill: #dda63a } 
		.s9 { fill: #c5192d } 
		.s10 { fill: #26bde2 } 
		.s11 { fill: #a21942 } 
		.s12 { fill: #dd1367 } 
		.s13 { fill: #bf8b2e } 
		.s14 { fill: #0a97d9 } 
		.s15 { fill: #00689d } 
		.s16 { fill: #56c02b } 
		.s17 { fill: #19486a } 
	</style>
	<path id="Layer" fill-rule="evenodd" class="s0" d="m183.9 118.4h-4.5l-1 2.8h-1.4l4.1-10.7h1.2l4.1 10.7h-1.4zm-4.1-1.1h3.6l-1.8-5z"/>
	<path id="Layer" fill-rule="evenodd" class="s0" d="m192.4 116.9h-2.5v4.3h-1.4v-10.7h3.5c1.2 0 2.1 0.3 2.8 0.8 0.6 0.5 1 1.3 1 2.4 0 0.7-0.2 1.2-0.5 1.7-0.4 0.5-0.9 0.9-1.5 1.1l2.5 4.5v0.1h-1.5zm-2.5-1.2h2.2c0.7 0 1.3-0.2 1.7-0.5 0.4-0.4 0.6-0.8 0.6-1.5q0-1.1-0.6-1.5c-0.4-0.4-1-0.5-1.7-0.5h-2.2z"/>
	<path id="Layer" fill-rule="evenodd" class="s0" d="m204.8 118.4h-4.5l-1 2.8h-1.5l4.1-10.7h1.2l4.1 10.7h-1.4zm-4-1.1h3.6l-1.8-5z"/>
	<path id="Layer" fill-rule="evenodd" class="s0" d="m209.5 110.5h3.5c1.2 0 2 0.2 2.6 0.7q0.9 0.8 0.9 2.1c0 0.5-0.1 0.9-0.4 1.3q-0.4 0.6-1.2 0.9c0.6 0.2 1 0.5 1.4 0.9 0.3 0.5 0.5 1 0.5 1.6 0 1-0.3 1.7-0.9 2.3-0.6 0.5-1.5 0.8-2.6 0.8h-3.8zm1.4 4.6h2.1c0.6 0 1.1-0.2 1.5-0.5 0.4-0.3 0.6-0.7 0.6-1.3 0-0.6-0.2-1-0.5-1.3-0.3-0.3-0.9-0.4-1.6-0.4h-2.1zm0 1.1v3.8h2.3c0.7 0 1.2-0.2 1.5-0.5 0.4-0.3 0.6-0.8 0.6-1.4 0-1.3-0.7-1.9-2.1-1.9z"/>
	<path id="Layer" class="s0" d="m226.9 116.4c-1.2-0.3-2.1-0.8-2.6-1.3-0.5-0.5-0.8-1.1-0.8-1.9 0-0.8 0.3-1.5 1-2.1 0.7-0.6 1.5-0.8 2.6-0.8 0.7 0 1.4 0.1 2 0.4 0.6 0.3 1 0.7 1.3 1.2 0.3 0.5 0.5 1 0.5 1.6h-1.4c0-0.6-0.2-1.2-0.6-1.5-0.4-0.4-1-0.6-1.7-0.6-0.7 0-1.2 0.2-1.6 0.5-0.4 0.3-0.6 0.7-0.6 1.3 0 0.4 0.2 0.8 0.6 1.1 0.4 0.3 1 0.6 1.9 0.8 0.9 0.2 1.6 0.5 2.1 0.8 0.5 0.3 0.9 0.7 1.1 1.1 0.2 0.4 0.4 0.9 0.4 1.4 0 0.9-0.3 1.6-1 2.1-0.7 0.5-1.6 0.8-2.7 0.8-0.7 0-1.4-0.1-2.1-0.4q-0.9-0.5-1.5-1.2c-0.3-0.5-0.5-1-0.5-1.7h1.4c0 0.6 0.2 1.2 0.7 1.5 0.5 0.4 1.1 0.6 1.9 0.6 0.7 0 1.3-0.2 1.7-0.5q0.6-0.5 0.6-1.2 0-0.8-0.6-1.2c-0.5-0.2-1.2-0.5-2.1-0.8z"/>
	<path id="Layer" class="s0" d="m240.7 111.7h-3.4v9.5h-1.4v-9.5h-3.5v-1.2h8.3z"/>
	<path id="Layer" fill-rule="evenodd" class="s0" d="m247.6 118.4h-4.5l-1 2.8h-1.5l4.1-10.7h1.2l4.1 10.7h-1.4zm-4-1.1h3.6l-1.8-5z"/>
	<path id="Layer" class="s0" d="m258.3 111.7h-3.4v9.5h-1.4v-9.5h-3.4v-1.2h8.2z"/>
	<path id="Layer" class="s0" d="m266.6 116.3h-4.6v3.7h5.4v1.2h-6.8v-10.7h6.7v1.2h-5.3v3.4h4.6z"/>
	<path id="Layer" class="s0" d="m272.9 116.4c-1.2-0.3-2.1-0.8-2.6-1.3-0.5-0.5-0.8-1.1-0.8-1.9 0-0.8 0.3-1.5 1-2.1 0.7-0.6 1.5-0.8 2.6-0.8 0.7 0 1.4 0.1 2 0.4 0.6 0.3 1 0.7 1.3 1.2 0.3 0.5 0.5 1 0.5 1.6h-1.4c0-0.6-0.2-1.2-0.6-1.5-0.4-0.4-1-0.6-1.7-0.6-0.7 0-1.2 0.2-1.6 0.5-0.4 0.3-0.6 0.7-0.6 1.3 0 0.4 0.2 0.8 0.6 1.1 0.4 0.3 1 0.6 1.9 0.8 0.9 0.2 1.6 0.5 2.1 0.8 0.5 0.3 0.9 0.7 1.1 1.1 0.2 0.4 0.4 0.9 0.4 1.4 0 0.9-0.3 1.6-1 2.1-0.7 0.5-1.6 0.8-2.7 0.8-0.7 0-1.4-0.1-2.1-0.4q-0.9-0.5-1.5-1.2c-0.3-0.5-0.5-1-0.5-1.7h1.4c0 0.6 0.2 1.2 0.7 1.5 0.5 0.4 1.1 0.6 1.9 0.6 0.7 0 1.3-0.2 1.7-0.5q0.6-0.5 0.6-1.2 0-0.8-0.6-1.2c-0.5-0.2-1.2-0.5-2.1-0.8z"/>
	<path id="Layer" class="s1" d="m181.4 97.7c-2.1 0-3.7-1.7-3.7-3.7 0-2.1 1.7-3.7 3.7-3.7 2.1 0 3.7 1.7 3.7 3.7 0.1 2-1.6 3.7-3.7 3.7z"/>
	<path id="Layer" class="s2" d="m205.3 97.7c-2.1 0-3.7-1.7-3.7-3.7 0-2.1 1.7-3.7 3.7-3.7 2.1 0 3.7 1.7 3.7 3.7 0 2-1.7 3.7-3.7 3.7z"/>
	<path id="Layer" class="s3" d="m229.1 97.7c-2.1 0-3.7-1.7-3.7-3.7 0-2.1 1.7-3.7 3.7-3.7 2.1 0 3.7 1.7 3.7 3.7 0.1 2-1.6 3.7-3.7 3.7z"/>
	<path id="Layer" class="s4" d="m253 97.7c-2.1 0-3.7-1.7-3.7-3.7 0-2.1 1.7-3.7 3.7-3.7 2.1 0 3.7 1.7 3.7 3.7 0 2-1.7 3.7-3.7 3.7z"/>
	<path id="Layer" class="s5" d="m276.8 97.7c-2.1 0-3.7-1.7-3.7-3.7 0-2.1 1.7-3.7 3.7-3.7 2.1 0 3.7 1.7 3.7 3.7 0 2-1.6 3.7-3.7 3.7z"/>
	<path id="Layer" class="s6" d="m300.7 97.7c-2.1 0-3.7-1.7-3.7-3.7 0-2.1 1.7-3.7 3.7-3.7 2.1 0 3.7 1.7 3.7 3.7 0 2-1.7 3.7-3.7 3.7z"/>
	<path id="Layer" class="s7" d="m324.5 97.7c-2.1 0-3.7-1.7-3.7-3.7 0-2.1 1.7-3.7 3.7-3.7 2.1 0 3.7 1.7 3.7 3.7 0 2-1.6 3.7-3.7 3.7z"/>
	<path id="Layer" class="s8" d="m193.4 97.7c-2.1 0-3.7-1.7-3.7-3.7 0-2.1 1.7-3.7 3.7-3.7 2.1 0 3.7 1.7 3.7 3.7 0 2-1.7 3.7-3.7 3.7z"/>
	<path id="Layer" class="s9" d="m217.2 97.7c-2.1 0-3.7-1.7-3.7-3.7 0-2.1 1.7-3.7 3.7-3.7 2.1 0 3.7 1.7 3.7 3.7 0 2-1.6 3.7-3.7 3.7z"/>
	<path id="Layer" class="s10" d="m241.1 97.7c-2.1 0-3.7-1.7-3.7-3.7 0-2.1 1.7-3.7 3.7-3.7 2.1 0 3.7 1.7 3.7 3.7 0 2-1.7 3.7-3.7 3.7z"/>
	<path id="Layer" class="s11" d="m264.9 97.7c-2.1 0-3.7-1.7-3.7-3.7 0-2.1 1.7-3.7 3.7-3.7 2.1 0 3.7 1.7 3.7 3.7 0 2-1.6 3.7-3.7 3.7z"/>
	<path id="Layer" class="s12" d="m288.7 97.7c-2.1 0-3.7-1.7-3.7-3.7 0-2.1 1.7-3.7 3.7-3.7 2.1 0 3.7 1.7 3.7 3.7 0.1 2-1.6 3.7-3.7 3.7z"/>
	<path id="Layer" class="s13" d="m312.6 97.7c-2.1 0-3.7-1.7-3.7-3.7 0-2.1 1.7-3.7 3.7-3.7 2.1 0 3.7 1.7 3.7 3.7 0 2-1.7 3.7-3.7 3.7z"/>
	<path id="Layer" class="s14" d="m336.4 97.7c-2.1 0-3.7-1.7-3.7-3.7 0-2.1 1.7-3.7 3.7-3.7 2.1 0 3.7 1.7 3.7 3.7 0.1 2-1.6 3.7-3.7 3.7z"/>
	<path id="Layer" class="s15" d="m360.3 97.7c-2.1 0-3.7-1.7-3.7-3.7 0-2.1 1.7-3.7 3.7-3.7 2.1 0 3.7 1.7 3.7 3.7 0 2-1.7 3.7-3.7 3.7z"/>
	<path id="Layer" class="s16" d="m348.4 97.7c-2.1 0-3.7-1.7-3.7-3.7 0-2.1 1.7-3.7 3.7-3.7 2.1 0 3.7 1.7 3.7 3.7 0 2-1.7 3.7-3.7 3.7z"/>
	<path id="Layer" class="s17" d="m372.2 97.7c-2.1 0-3.7-1.7-3.7-3.7 0-2.1 1.7-3.7 3.7-3.7 2.1 0 3.7 1.7 3.7 3.7 0 2-1.6 3.7-3.7 3.7z"/>
	<path id="Layer" class="s0" d="m187.4 26.2v8.3c0 1.4-0.4 2.5-1.3 3.3-0.9 0.8-2 1.2-3.5 1.2-1.5 0-2.6-0.4-3.5-1.2-0.9-0.8-1.3-1.8-1.3-3.2v-8.4h2.6v8.3q0 1.2 0.6 1.8c0.4 0.4 0.9 0.6 1.6 0.6 1.5 0 2.2-0.8 2.2-2.3v-8.4z"/>
	<path id="Layer" class="s0" d="m200.6 38.8h-2.6l-5-8.3v8.3h-2.6v-12.6h2.6l5 8.3v-8.3h2.6z"/>
	<path id="Layer" class="s0" d="m203.8 26.2h2.6v12.6h-2.6z"/>
	<path id="Layer" class="s0" d="m218.9 28.3h-3.9v10.5h-2.6v-10.5h-3.8v-2.1h10.3z"/>
	<path id="Layer" class="s0" d="m228.6 33.4h-5v3.3h5.9v2.1h-8.5v-12.6h8.4v2.1h-5.8v3h5z"/>
	<path id="Layer" fill-rule="evenodd" class="s0" d="m232 26.2h3.9c1.1 0 2.1 0.2 3 0.7 0.9 0.5 1.6 1.2 2 2.1 0.5 0.9 0.7 2 0.7 3.1v0.6c0 1.2-0.2 2.2-0.7 3.1-0.5 0.9-1.2 1.6-2 2.1-0.9 0.5-1.9 0.8-3 0.8h-3.9zm2.5 2.1v8.4h1.3c1 0 1.8-0.3 2.3-1 0.5-0.7 0.8-1.6 0.8-2.8v-0.7c0-1.3-0.3-2.2-0.8-2.9-0.5-0.7-1.3-1-2.3-1z"/>
	<path id="Layer" class="s0" d="m260.2 38.8h-2.6l-5-8.3v8.3h-2.6v-12.6h2.6l5 8.3v-8.3h2.6z"/>
	<path id="Layer" fill-rule="evenodd" class="s0" d="m270.4 36.2h-4.5l-0.9 2.6h-2.8l4.7-12.6h2.4l4.7 12.6h-2.8zm-3.9-2.1h3.1l-1.6-4.7z"/>
	<path id="Layer" class="s0" d="m284 28.3h-3.9v10.5h-2.6v-10.5h-3.8v-2.1h10.3z"/>
	<path id="Layer" class="s0" d="m286.2 26.2h2.6v12.6h-2.6z"/>
	<path id="Layer" fill-rule="evenodd" class="s0" d="m302.2 32.8c0 1.2-0.2 2.3-0.7 3.3-0.4 0.9-1.1 1.7-1.9 2.2-0.8 0.5-1.8 0.8-2.8 0.8-1 0-2-0.2-2.8-0.8-0.8-0.5-1.5-1.2-1.9-2.1-0.4-0.9-0.7-2-0.7-3.2v-0.6c0-1.2 0.2-2.3 0.7-3.3 0.4-0.9 1.1-1.7 1.9-2.2 0.8-0.5 1.7-0.8 2.8-0.8 1 0 2 0.3 2.8 0.8 0.8 0.5 1.4 1.2 1.9 2.2 0.4 0.9 0.7 2 0.7 3.3zm-2.6-0.6c0-1.3-0.2-2.3-0.7-3-0.5-0.7-1.1-1-2-1-0.9 0-1.5 0.3-2 1-0.5 0.7-0.7 1.7-0.7 3v0.6c0 1.3 0.2 2.3 0.7 3 0.5 0.7 1.2 1.1 2 1.1 0.9 0 1.5-0.3 2-1 0.5-0.7 0.7-1.7 0.7-3z"/>
	<path id="Layer" class="s0" d="m315.1 38.8h-2.6l-5-8.3v8.3h-2.6v-12.6h2.6l5.1 8.3v-8.3h2.5z"/>
	<path id="Layer" class="s0" d="m324.7 35.5c0-0.5-0.2-0.9-0.5-1.1-0.3-0.3-1-0.5-1.9-0.8q-1.4-0.4-2.1-0.9c-1.4-0.8-2.1-1.8-2.1-3.1q0-1 0.6-1.8c0.4-0.5 0.9-0.9 1.6-1.2 0.7-0.3 1.5-0.4 2.4-0.4 0.9 0 1.7 0.2 2.4 0.5 0.7 0.3 1.2 0.8 1.6 1.4 0.4 0.6 0.6 1.3 0.6 2h-2.6c0-0.6-0.2-1-0.5-1.3-0.4-0.3-0.9-0.5-1.5-0.5-0.6 0-1.1 0.1-1.5 0.4-0.4 0.3-0.5 0.6-0.5 1.1 0 0.4 0.2 0.8 0.6 1 0.4 0.3 1 0.5 1.8 0.8 1.5 0.4 2.5 1 3.2 1.7 0.7 0.7 1 1.5 1 2.5 0 1.1-0.4 1.9-1.2 2.6q-1.2 0.9-3.3 0.9c-1 0-1.8-0.2-2.6-0.5-0.8-0.4-1.4-0.8-1.8-1.5q-0.6-0.9-0.6-2.1h2.6c0 1.4 0.8 2.1 2.5 2.1 0.6 0 1.1-0.1 1.4-0.4 0.2-0.6 0.4-0.9 0.4-1.4z"/>
	<path id="Layer" fill-rule="evenodd" class="s0" d="m182.5 54h-2.1v4.6h-2.6v-12.5h4.7c1.5 0 2.6 0.3 3.4 1 0.8 0.7 1.2 1.6 1.2 2.8q0 1.3-0.6 2.1c-0.4 0.6-0.9 1-1.7 1.4l2.7 5.1v0.1h-2.8zm0-2.1c0.7 0 1.2-0.2 1.5-0.5 0.4-0.3 0.5-0.8 0.5-1.4 0-0.6-0.2-1.1-0.5-1.4-0.3-0.3-0.9-0.5-1.6-0.5h-2.1v3.8z"/>
	<path id="Layer" class="s0" d="m197.5 53.2h-5v3.4h5.8v2h-8.4v-12.5h8.4v2.1h-5.8v3h5z"/>
	<path id="Layer" class="s0" d="m210.4 57.1c-0.5 0.6-1.1 1-2 1.3-0.9 0.3-1.8 0.5-2.8 0.5-1.1 0-2-0.2-2.9-0.7-0.8-0.5-1.5-1.2-1.9-2.1-0.4-0.9-0.7-2-0.7-3.2v-0.9c0-1.3 0.2-2.3 0.6-3.3q0.6-1.3 1.8-2.1c0.8-0.5 1.7-0.7 2.8-0.7 1.5 0 2.7 0.4 3.5 1.1 0.8 0.7 1.3 1.7 1.5 3.1h-2.5c-0.1-0.7-0.4-1.2-0.8-1.6-0.4-0.3-0.9-0.5-1.6-0.5-0.9 0-1.6 0.3-2 1-0.5 0.7-0.7 1.6-0.7 3v0.8c0 1.3 0.3 2.3 0.8 3 0.5 0.7 1.2 1 2.2 1q1.5 0 2.1-0.6v-2.2h-2.4v-2h5z"/>
	<path id="Layer" class="s0" d="m213.5 46.1h2.6v12.6h-2.6z"/>
	<path id="Layer" fill-rule="evenodd" class="s0" d="m229.5 52.6c0 1.2-0.2 2.3-0.7 3.3-0.4 0.9-1.1 1.7-1.9 2.2-0.8 0.5-1.8 0.8-2.8 0.8-1 0-2-0.2-2.8-0.8-0.8-0.5-1.5-1.2-1.9-2.1-0.4-0.9-0.7-2-0.7-3.2v-0.6c0-1.2 0.2-2.3 0.7-3.3 0.4-0.9 1.1-1.7 1.9-2.2 0.8-0.5 1.7-0.8 2.8-0.8 1 0 2 0.3 2.8 0.8 0.8 0.5 1.4 1.2 1.9 2.2 0.4 0.9 0.7 2 0.7 3.3zm-2.6-0.5c0-1.3-0.2-2.3-0.7-3-0.5-0.7-1.1-1-2-1-0.9 0-1.5 0.3-2 1-0.5 0.7-0.7 1.7-0.7 3v0.6c0 1.3 0.2 2.3 0.7 3 0.5 0.7 1.2 1.1 2 1.1 0.9 0 1.5-0.3 2-1 0.5-0.7 0.7-1.7 0.7-3z"/>
	<path id="Layer" class="s0" d="m242.4 58.6h-2.6l-5-8.2v8.2h-2.6v-12.5h2.6l5 8.3v-8.3h2.6z"/>
	<path id="Layer" fill-rule="evenodd" class="s0" d="m252.6 56h-4.6l-0.9 2.6h-2.8l4.7-12.6h2.4l4.7 12.6h-2.8zm-3.9-2.1h3.1l-1.6-4.7z"/>
	<path id="Layer" class="s0" d="m260.8 56.6h5.5v2h-8.1v-12.5h2.6z"/>
	<path id="Layer" class="s0" d="m283.5 54.5c-0.1 1.4-0.6 2.4-1.5 3.2q-1.4 1.2-3.6 1.2c-1.6 0-2.9-0.5-3.8-1.6-0.9-1.1-1.4-2.6-1.4-4.5v-0.8c0-1.2 0.2-2.3 0.6-3.2q0.6-1.3 1.8-2.1c0.8-0.5 1.7-0.7 2.8-0.7 1.5 0 2.6 0.4 3.5 1.2q1.4 1.2 1.5 3.3h-2.6c-0.1-0.8-0.3-1.4-0.7-1.8-0.4-0.4-1-0.5-1.8-0.5-0.9 0-1.5 0.3-1.9 0.9-0.4 0.6-0.6 1.6-0.7 2.9v0.9q0 2.1 0.6 3c0.4 0.6 1.1 0.9 1.9 0.9 0.8 0 1.4-0.2 1.8-0.5 0.4-0.4 0.6-0.9 0.7-1.7h2.8z"/>
	<path id="Layer" fill-rule="evenodd" class="s0" d="m296.3 52.6c0 1.2-0.2 2.3-0.7 3.3-0.4 0.9-1.1 1.7-1.9 2.2-0.8 0.5-1.8 0.8-2.8 0.8-1 0-2-0.2-2.8-0.8-0.8-0.5-1.5-1.2-1.9-2.1-0.4-0.9-0.7-2-0.7-3.2v-0.6c0-1.2 0.2-2.3 0.7-3.3 0.4-0.9 1.1-1.7 1.9-2.2 0.8-0.5 1.7-0.8 2.8-0.8 1 0 2 0.3 2.8 0.8 0.8 0.5 1.4 1.2 1.9 2.2 0.4 0.9 0.7 2 0.7 3.3zm-2.7-0.5c0-1.3-0.2-2.3-0.7-3-0.5-0.7-1.1-1-2-1-0.9 0-1.5 0.3-2 1-0.5 0.7-0.7 1.7-0.7 3v0.6c0 1.3 0.2 2.3 0.7 3 0.5 0.7 1.2 1.1 2 1.1 0.9 0 1.5-0.3 2-1 0.5-0.7 0.7-1.7 0.7-3z"/>
	<path id="Layer" class="s0" d="m301.5 56.6h5.5v2h-8.1v-12.5h2.6z"/>
	<path id="Layer" class="s0" d="m311.8 56.6h5.5v2h-8.1v-12.5h2.6z"/>
	<path id="Layer" fill-rule="evenodd" class="s0" d="m327.1 56h-4.5l-0.9 2.6h-2.8l4.7-12.6h2.4l4.7 12.6h-2.8zm-3.9-2.1h3.1l-1.6-4.7z"/>
	<path id="Layer" fill-rule="evenodd" class="s0" d="m332.7 46.1h4.4c1.5 0 2.7 0.3 3.5 0.9 0.8 0.6 1.2 1.4 1.2 2.6 0 0.6-0.2 1.2-0.5 1.6-0.3 0.5-0.8 0.8-1.3 1 0.6 0.2 1.2 0.5 1.5 1q0.6 0.8 0.6 1.8 0 1.8-1.2 2.7c-0.8 0.6-1.9 0.9-3.3 1h-4.9zm2.6 5.2h1.9c1.3 0 2-0.5 2-1.6 0-0.6-0.2-1-0.5-1.2-0.3-0.2-0.9-0.4-1.6-0.4h-1.8zm0 1.9v3.4h2.2c0.6 0 1.1-0.1 1.4-0.4 0.3-0.3 0.5-0.7 0.5-1.2 0-1.2-0.6-1.7-1.8-1.8z"/>
	<path id="Layer" fill-rule="evenodd" class="s0" d="m354.9 52.6c0 1.2-0.2 2.3-0.7 3.3-0.4 0.9-1.1 1.7-1.9 2.2-0.8 0.5-1.8 0.8-2.8 0.8-1 0-2-0.2-2.8-0.8-0.8-0.5-1.5-1.2-1.9-2.1-0.4-0.9-0.7-2-0.7-3.2v-0.6c0-1.2 0.2-2.3 0.7-3.3 0.4-0.9 1.1-1.7 1.9-2.2 0.8-0.5 1.7-0.8 2.8-0.8 1 0 2 0.3 2.8 0.8 0.8 0.5 1.4 1.2 1.9 2.2 0.4 0.9 0.7 2 0.7 3.3zm-2.6-0.5c0-1.3-0.2-2.3-0.7-3-0.5-0.7-1.1-1-2-1-0.9 0-1.5 0.3-2 1-0.5 0.7-0.7 1.7-0.7 3v0.6c0 1.3 0.2 2.3 0.7 3 0.5 0.7 1.2 1.1 2 1.1 0.9 0 1.5-0.3 2-1 0.5-0.7 0.7-1.7 0.7-3z"/>
	<path id="Layer" fill-rule="evenodd" class="s0" d="m362.2 54h-2.1v4.6h-2.6v-12.5h4.7c1.5 0 2.6 0.3 3.4 1 0.8 0.7 1.2 1.6 1.2 2.8q0 1.3-0.6 2.1c-0.4 0.6-0.9 1-1.7 1.4l2.7 5.1v0.1h-2.8zm0.1-2.1c0.7 0 1.2-0.2 1.5-0.5 0.4-0.3 0.5-0.8 0.5-1.4 0-0.6-0.2-1.1-0.5-1.4-0.3-0.3-0.9-0.5-1.6-0.5h-2.1v3.8z"/>
	<path id="Layer" fill-rule="evenodd" class="s0" d="m377.2 56h-4.5l-0.9 2.6h-2.8l4.7-12.6h2.4l4.7 12.6h-2.8zm-3.9-2.1h3.1l-1.6-4.7z"/>
	<path id="Layer" class="s0" d="m390.7 48.2h-3.8v10.4h-2.6v-10.4h-3.8v-2.1h10.2z"/>
	<path id="Layer" class="s0" d="m393 46.1h2.6v12.6h-2.6z"/>
	<path id="Layer" class="s0" d="m403.4 55.5l2.8-9.4h2.9l-4.4 12.5h-2.7l-4.3-12.5h2.9z"/>
	<path id="Layer" class="s0" d="m418.7 53.2h-5v3.4h5.9v2h-8.5v-12.5h8.4v2.1h-5.8v3h5z"/>
	<path id="Layer" fill-rule="evenodd" class="s0" d="m180.4 78.4h-2.6v-12.5h4.9c0.9 0 1.8 0.2 2.5 0.5 0.7 0.3 1.3 0.8 1.7 1.5 0.4 0.6 0.6 1.4 0.6 2.2 0 1.2-0.4 2.2-1.3 2.9-0.8 0.7-2 1.1-3.5 1.1h-2.3zm0-6.5h2.3c0.7 0 1.2-0.2 1.6-0.5 0.4-0.3 0.5-0.8 0.5-1.4 0-0.6-0.2-1.1-0.5-1.5q-0.6-0.6-1.5-0.6h-2.4z"/>
	<path id="Layer" class="s0" d="m192.4 76.4h5.5v2.1h-8.1v-12.6h2.6z"/>
	<path id="Layer" fill-rule="evenodd" class="s0" d="m207.7 75.9h-4.5l-0.9 2.6h-2.8l4.7-12.6h2.4l4.7 12.6h-2.8zm-3.9-2.1h3.1l-1.6-4.7z"/>
	<path id="Layer" class="s0" d="m221.3 68h-3.9v10.5h-2.6v-10.5h-3.8v-2.1h10.3z"/>
	<path id="Layer" class="s0" d="m231 73.3h-5v5.2h-2.6v-12.6h8.2v2.1h-5.6v3.2h5z"/>
	<path id="Layer" fill-rule="evenodd" class="s0" d="m244 72.5c0 1.2-0.2 2.3-0.7 3.3-0.4 0.9-1.1 1.7-1.9 2.2-0.8 0.5-1.8 0.8-2.8 0.8-1 0-2-0.3-2.8-0.8-0.8-0.5-1.5-1.2-1.9-2.1-0.4-0.9-0.7-2-0.7-3.2v-0.6c0-1.2 0.2-2.3 0.7-3.3 0.4-0.9 1.1-1.7 1.9-2.2 0.8-0.5 1.7-0.8 2.8-0.8 1 0 2 0.3 2.8 0.8 0.8 0.5 1.4 1.2 1.9 2.2 0.4 0.9 0.7 2 0.7 3.3zm-2.6-0.6c0-1.3-0.2-2.3-0.7-3-0.5-0.7-1.1-1-2-1-0.9 0-1.5 0.3-2 1-0.5 0.7-0.7 1.7-0.7 3v0.6c0 1.3 0.2 2.3 0.7 3 0.5 0.7 1.2 1.1 2 1.1 0.9 0 1.5-0.3 2-1 0.5-0.7 0.7-1.7 0.7-3z"/>
	<path id="Layer" fill-rule="evenodd" class="s0" d="m251.3 73.9h-2.1v4.6h-2.6v-12.6h4.7c1.5 0 2.6 0.3 3.4 1 0.8 0.7 1.2 1.6 1.2 2.8q0 1.3-0.6 2.1c-0.4 0.6-0.9 1-1.7 1.4l2.7 5.1v0.1h-2.8zm0-2.1c0.7 0 1.2-0.2 1.5-0.5 0.4-0.3 0.5-0.8 0.5-1.4 0-0.6-0.2-1.1-0.5-1.4-0.3-0.3-0.9-0.5-1.6-0.5h-2.1v3.8z"/>
	<path id="Layer" class="s0" d="m262.1 65.9l3.2 9.1 3.2-9.1h3.4v12.6h-2.6v-3.5l0.3-5.9-3.4 9.4h-1.8l-3.4-9.4 0.3 5.9v3.5h-2.6v-12.6z"/>
	<path id="Layer" fill-rule="evenodd" class="s0" d="m127.2 130.2q0.3-0.1 0.6-0.3c0.1 0 0.2 0.1 0.2 0.1-2.7 2.8-6.2 4.7-9.5 5.6-2.5 0.7-4.9 0.8-7.5 0.5-3.9-0.4-7.4-2-10.6-4.1-1.9-1.3-3.9-2.6-5.8-3.9-2.2-1.5-4.6-1.8-7.2-1.4-1.4 0.1-0.3 0.8-0.1 0.9 3.4 1.7 6.7 3.7 9.7 6 2.1 1.5 5.7 5 5.7 5l-2.7 2.3c0 0-2.1-2.3-3-3.3-6-6.3-11.3-9-12.5-9.7-0.2-0.1-0.4-0.2-0.6-0.2-0.2 0-0.4 0.1-0.6 0.2-1.2 0.7-6.5 3.4-12.5 9.7-0.9 0.9-3 3.3-3 3.3l-2.7-2.3c0 0 3.7-3.5 5.7-5 3-2.3 6.2-4.3 9.7-6 0.2-0.1 1.3-0.8-0.1-0.9-2.6-0.4-5-0.1-7.2 1.4-1.9 1.3-3.8 2.6-5.8 3.9-3.2 2.1-6.7 3.7-10.6 4.1-2.5 0.3-5 0.2-7.5-0.5-3.3-0.9-6.8-2.9-9.5-5.6 0 0 0.1-0.1 0.2-0.1q0.3 0.1 0.6 0.3c4 2.1 8.2 2.3 12.6 1.5 3-0.6 5.7-1.8 8.5-2.9 2-0.8 3.9-1.8 6-2.4 5.3-1.7 10.6-1.7 16-0.4q0.2 0 0.3 0 0.2 0 0.3 0c5.4-1.4 10.7-1.4 16 0.4 2 0.7 4 1.6 6 2.4 2.8 1.2 5.5 2.4 8.5 2.9 4.2 0.9 8.4 0.6 12.4-1.5zm13.6-11.5c-2.6 3.9-7.1 7.1-10.8 8.5-3.3 1.2-6.7 1.5-10.2 1.3-3.2-0.3-6.3-1-9.4-1.8-2-0.5-5.9-1.4-7.3-1.7h-0.1c0-0.1 0-0.1 0.1-0.2 0-0.1 0.1-0.1 0.1-0.1 1.8-0.5 6.6-1.9 10-5.1 2.1-2 4.1-4.1 6.3-6.1 1.7-1.7 5.5-4.9 5.8-5v0.2c-0.6 0.8-2.6 5.4-3.8 7.7-1.8 3.3-4.1 6-7.6 7.3-0.1 0-0.1 0-0.1 0-0.1 0 0.1 0.1 0.3 0.1 0.1 0 0.1 0 0.1 0 3.9-0.6 7.7-0.8 11.7-1 3-0.1 6-0.3 8.9-1.3 1.9-0.7 3.4-1.2 5.7-3 0-0.1 0.1-0.1 0.3 0.2zm11.6-18.5c-0.3 1.2-0.8 2.1-1.3 3.2-2 4.1-5 7.3-8.6 10.1-3.6 2.8-7.5 4.4-11.9 5.1-2.6 0.4-5.3 1.1-7.9 1.6-0.2 0-0.5 0-0.8 0.1v-0.1l0.2-0.2c2.4-2.3 3.9-5.2 5-8.3q1.2-3.4 2.4-6.9c1.1-3.2 3.5-8.4 6.4-11.7 0.1 0 0.1 0.1 0.1 0.2-0.9 2.9-1 6.1-1.4 9.1-1.2 8.6-5.2 12.6-5.3 12.8-0.1 0.2 0 0.3 0.1 0.2 0.2-0.1 0.3-0.3 0.5-0.4 2.7-2.2 5.4-3.5 8.6-5 2.6-1.2 4.7-2.2 7-3.8 4.8-3.2 6.7-5.8 6.8-5.9q0 0 0.1-0.1zm0-0.1c0.1 0.1 0 0.1 0 0.1q0 0 0-0.1zm5.4-20.1c0 0 0 0.3 0 0.5 0 5-1.6 10-4.5 14.2-2.3 3.3-5.3 6-8.6 8.2-2.6 1.8-6.7 4.2-8.1 5.1 0 0-0.1-0.2-0.1-0.3 0-0.1 0-0.1 0-0.1 1.7-3.5 2-7.3 2.3-11.2 0.2-3.4-0.4-7.6-0.2-10.8 0.2-2.7 1-5.6 1.7-7.9 0.1-0.3 0.1-0.4 0.1-0.4 0.1 0 0.2 0.1 0.2 0.2 0.4 4 1.8 7.5 2.3 10.8 0.6 3.8 0.2 8.7-0.8 11.5 0 0.1 0.1 0.2 0.2 0.1 2.1-3.2 6.6-7.8 9-10.2 3-3.2 5.1-6.2 6.2-9.8 0 0 0.2-0.1 0.3 0.1zm-8-1.2c1.9-6.3 6.3-10.2 6.3-19.4 0 0 0.1-0.2 0.2-0.2 0.1 0.2 0.4 0.8 0.6 1.6 3.9 12.8-4.1 22-5.7 23.9-1.5 1.8-3.9 4.3-5.1 6.1-0.1-0.1-0.1-0.1-0.1-0.4 0.4-3.7-0.2-6.6-1.4-10.1-1.8-5.2-3.5-10.5-4.1-16 0-0.7-0.1-1.9-0.1-2.2l0.2 0.1c0.7 2 2.5 4.8 3.6 6.5 2 3.1 4.3 6.3 4.6 10.1 0 1 0 2.3-0.1 3.3 0 0 0 0.1 0.2 0 0 0.1 0 0 0 0q0.4-1.3 0.9-3.3zm-0.4-15.6c0-0.1-0.3-3.5-0.3-3.9-0.2-2.7 0.3-5.3 0.7-8 0.4-3.4 0.7-6.2-0.2-10.1 0-0.3-0.1-0.5-0.2-0.8-0.1-0.2-0.1-0.4-0.2-0.6 0 0 0-0.2 0.1-0.2 3.6 4.3 5.6 12.1 4.7 18.2-0.3 2.2-1.8 7.1-2 7.6-0.9 2.4-2.1 6.1-2.3 7 0 0-0.2 0-0.2-0.1-0.7-2.6-3.5-7.7-5.3-10.1-0.1-0.2-0.3-0.3-0.4-0.5-1.8-2.4-3.7-4.7-4.9-7.4-0.9-1.9-2.1-5.9-2.2-6.3 0 0 0 0 0.1 0 0-0.1 0.1-0.1 0.2 0 0.1 0 0.1 0 0.1 0 1.3 2 3.4 4.2 4.9 5.5 2.4 1.9 4.2 3.4 5.6 6.2 0.1 0.3 0.3 0.8 0.5 1.2 0.5 1 0.9 2.2 0.9 2.2 0 0.1 0.1 0.2 0.4 0.1zm-11.3-34.2c-0.1-0.2 0-0.3 0.1-0.3 0.1 0 0.4 0.1 0.6 0.2 3.3 1.7 5.6 4.4 7.1 7.8 0.9 2.1 1.2 4.3 1.2 6.5 0 0.7-0.1 1.5-0.1 2.2-0.1 1.8-0.2 4.5-0.2 6.5 0 0.9 0.1 1.6 0.1 2.1 0 0.1-0.1 0-0.1 0-0.8-0.9-3.1-3.9-6.4-6.6-1.9-1.5-3.8-3-5.5-4.6-2.4-2.3-3.8-6.1-4.2-8.2-0.1-0.2-0.1-0.3-0.1-0.4l0.2 0.1c0.2 0.4 0.5 0.7 0.7 1 1.4 1.9 2.9 3 4.8 4.3 3.2 2 5.5 3.5 7.3 6 0 0.1 0 0.1 0 0.1 0.1 0.1 0.2 0.1 0.2-0.1-0.6-1.8-0.8-2.9-1.2-4.5-0.6-2.6-0.9-6-1.9-8.3-0.6-1.5-1.5-2.7-2.6-3.8zm-14.4-6.9c0 0 0-0.1 0-0.2 3.3 1 6.8 2.3 9.4 4.6 4.8 3.8 6.5 11.5 6.7 12.6h-0.1c-1-0.7-4.6-3.5-5.9-4.8-1.9-1.6-3.3-3.7-4.7-5.8-1.5-2.1-3.1-4.2-5-5.9-0.1-0.2-0.2-0.3-0.4-0.5zm-85.8 104.7c-3.7-1.4-8.2-4.6-10.8-8.5 0.1-0.1 0.3 0 0.3 0 2.3 1.8 3.8 2.3 5.7 3 2.8 0.9 5.9 1.1 8.9 1.3 4 0.2 7.8 0.4 11.7 1 0.1 0 0.1 0 0.1 0 0.3 0.1 0.4 0 0.3-0.1-0.1 0-0.1 0-0.1 0-3.5-1.2-5.8-3.9-7.6-7.3-1.2-2.4-3.2-7-3.8-7.7v-0.2c0.2 0.1 4.1 3.4 5.8 5 2.1 2 4.1 4.1 6.3 6.1 3.4 3.2 8.2 4.6 10 5.1l0.1 0.1c0.1 0.1 0.1 0.2 0.1 0.2h-0.1c-1.4 0.3-5.3 1.2-7.3 1.7-3.1 0.9-6.2 1.6-9.4 1.8-3.5 0.3-7-0.1-10.2-1.5zm-0.9-7.9c-4.4-0.8-8.3-2.4-11.9-5.1-3.6-2.8-6.6-6-8.6-10.1-0.5-1.1-1-2.1-1.3-3.3 0-0.1 0.1-0.1 0.2 0 0.1 0.1 2.1 2.7 6.8 5.9 2.3 1.6 4.5 2.6 7 3.8 3.2 1.4 5.9 2.8 8.6 5 0.2 0.2 0.3 0.3 0.5 0.4 0.1 0 0.2-0.1 0.1-0.2-0.2-0.2-4.1-4.2-5.3-12.8-0.4-3-0.4-6.2-1.4-9.1 0-0.1 0.1-0.2 0.1-0.2 2.9 3.3 5.3 8.5 6.4 11.7q1.2 3.5 2.4 6.9c1.2 3.1 2.6 5.9 5 8.3l0.2 0.2c0 0 0 0 0 0.1-0.4 0-0.6-0.1-0.8-0.1-2.6-0.5-5.2-1.1-8-1.4zm-22.4-24.6c-2.9-4.1-4.6-9.1-4.5-14.2 0-0.2 0-0.5 0-0.5l0.2 0.1c1.1 3.7 3.2 6.6 6.2 9.8 2.4 2.4 6.9 7 9 10.2 0.1 0.1 0.3 0.1 0.2-0.1-1-2.8-1.4-7.7-0.8-11.5 0.5-3.3 1.9-6.8 2.3-10.8 0.1-0.1 0.1-0.2 0.2-0.2 0 0 0 0.1 0.1 0.4 0.7 2.3 1.6 5.2 1.7 7.9 0.1 3.3-0.5 7.5-0.2 10.8 0.3 3.9 0.5 7.7 2.3 11.2 0 0.1 0 0.1 0 0.1 0 0.1-0.1 0.3-0.1 0.3-1.4-0.9-5.4-3.3-8.1-5.1-3.3-2.2-6.3-4.8-8.5-8.4zm1.9-9.5c-1.6-1.9-9.7-11.1-5.7-23.9 0.2-0.8 0.5-1.5 0.6-1.6 0.1 0 0.2 0.2 0.2 0.2 0 9.2 4.4 13.1 6.3 19.4 0.4 1.2 0.7 2.3 0.9 3.2 0 0.1 0.1 0.1 0.1 0.1 0.1 0 0.1-0.1 0.1-0.1-0.2-1.1-0.2-2.3-0.1-3.3 0.3-3.8 2.6-6.9 4.6-10.1 1.1-1.7 2.9-4.6 3.7-6.5l0.2-0.1c0 0.3 0 1.5-0.1 2.2-0.6 5.5-2.3 10.8-4.1 16-1.2 3.5-1.8 6.4-1.4 10.1 0 0.3 0 0.3-0.1 0.4-1.2-1.8-3.6-4.3-5.2-6zm-2.4-27.1c-0.8-6.1 1.2-13.9 4.7-18.2 0.1 0 0.1 0.2 0.1 0.2-0.1 0.2-0.1 0.4-0.2 0.6-0.1 0.3-0.1 0.5-0.2 0.8-1 4-0.7 6.7-0.2 10.1 0.3 2.7 0.8 5.3 0.7 8-0.1 0.5-0.3 3.8-0.3 3.9 0 0.2 0.2 0.1 0.2 0 0 0 0.5-1.2 0.9-2.2 0.2-0.5 0.3-0.9 0.5-1.2 1.4-2.8 3.2-4.3 5.6-6.2 1.5-1.3 3.6-3.5 4.9-5.5 0.1 0 0.1 0 0.1 0 0.1 0 0.2 0 0.2 0 0.1 0 0.1 0 0.1 0-0.1 0.4-1.4 4.4-2.2 6.3-1.2 2.8-3.1 5.1-4.9 7.4-0.1 0.2-0.3 0.3-0.4 0.5-1.8 2.4-4.6 7.5-5.3 10.1 0 0.1-0.2 0.1-0.2 0.1-0.3-0.9-1.4-4.5-2.3-7-0.1-0.6-1.6-5.5-1.8-7.7zm6.7-14.3c0-2.2 0.3-4.4 1.2-6.5 1.5-3.4 3.7-6.1 7.1-7.8 0.2-0.1 0.4-0.2 0.6-0.2 0 0 0 0.1 0 0.2-1.1 1.1-2 2.4-2.6 3.8-1 2.3-1.3 5.7-1.9 8.3-0.4 1.6-0.6 2.7-1.2 4.5 0 0.2 0.1 0.3 0.2 0.1 0-0.1 0-0.1 0-0.1 1.8-2.4 4.1-4 7.3-6 2-1.3 3.4-2.4 4.8-4.3 0.2-0.4 0.5-0.7 0.7-1 0-0.1 0.2-0.1 0.2-0.1 0 0.1-0.1 0.2-0.1 0.4-0.4 2.1-1.8 5.9-4.2 8.2-1.7 1.6-3.7 3.1-5.5 4.6-3.3 2.7-5.6 5.6-6.4 6.6 0 0-0.1 0.1-0.1 0 0.1-0.4 0.1-1.2 0.1-2.1 0-2 0-4.6-0.1-6.5-0.1-0.7-0.1-1.5-0.1-2.1zm7.2-4.2c0.2-1.1 1.9-8.9 6.7-12.5 2.6-2.3 6-3.7 9.4-4.6 0.1 0 0 0.2 0 0.2-0.1 0.2-0.2 0.3-0.4 0.4-2 1.7-3.5 3.7-5 5.9-1.4 2.1-2.8 4.1-4.7 5.8-1.3 1.2-5 4.1-5.9 4.8 0 0 0 0-0.1 0zm19.4 66.4c-9.7-9.7-15.1-22.7-15.1-36.5 0-13.8 5.4-26.8 15.1-36.5 9.7-9.7 22.7-15.1 36.5-15.1 13.8 0 26.8 5.4 36.5 15.1 9.7 9.7 15.1 22.7 15.1 36.5 0 13.8-5.4 26.8-15.1 36.5-9.7 9.7-22.7 15.1-36.5 15.1-13.8 0-26.7-5.3-36.5-15.1zm37.6-47.7c0.8 0.1 1.5 0.2 2.2 0.4 0.2-0.5 0.7-0.7 1-1 0.5-0.3 0.8-0.7 0.7 0.2q-0.2 0.9-0.6 1.2c0.8 0.3 1.5 0.8 2.2 1.3 0.2 0.1 0.3 0.2 0.4 0.3l0.8-0.8v-0.1c0-0.4 0.6-0.9 1.4-1.3l2.5-2.5c-0.1 0-0.1 0-0.2 0-0.3 0-0.8 0.6-1.1 0.5-0.4-0.2 1.1-1.5 1.7-1.2 0.1 0 0.2 0.1 0.3 0.1l0.3-0.3c-3.1-2.8-7.2-4.6-11.6-4.8zm7.9-1.8c0-0.3 1.2 0.3 1.4 0.4 0.2 0.2-0.8 0.7-1 0.6-0.3-0.1-0.4-0.3-0.4-1zm18.9 37.6c0.3 0.7 0.4 1.4 0.2 2l0.4 0.4c6.4-6.8 10.5-15.9 10.7-25.9h-7.9c-0.3 7.8-3.4 14.9-8.4 20.3l2.9 2.9c0 0 0-0.1 0.1-0.1 0.2-0.5 0.1-1.2 0.2-1.6 0-0.3 1.1-0.2 1.2 0.3 0 0.3 0.2 0.6 0.6 1.7zm-2-38.2c-1.2-2.3-2.7-4.4-4.4-6.3l-5.6 5.6c1 1.1 1.8 2.2 2.5 3.5 0.7 0.1 1.6 0.4 2.1 1.1 0.4 0.5 1.6 1.6 1.4 2.1-0.1 0.3 0.1 0.6 0.4 0.8q0.6 0.5 0.9 0c0.4-0.5 0.5-1.2 1-1.7 0.7-0.6 2 1 2 1.3 0 0.3-0.4 0.4-0.5 0.9-0.1 0.7-0.7 1.5-0.1 1.8 1 0.3 1.1-0.1 1.6-0.8 0.2-0.3 0.2-0.9 0.4-1.2 0.2-0.2 0.4-0.3 0.6-0.4q-0.6-2.4-1.5-4.5c-0.1-0.1-0.3-0.3-0.5-0.3-0.4-0.1-0.2-0.4-0.6-0.6-0.5-0.2-0.8-0.3-0.8-1.3 0-0.8 0.6 0.3 0.8 0.1 0.2 0 0.2 0 0.3-0.1zm-2.8-7.9v0.1c0 0 0 0.1-0.1 0.1 1.3 1.4 2.5 2.9 3.5 4.6 0.1-0.2 0.2-0.3 0.4-0.1 0.3 0.3-0.3 0.9 0.5 0.7 0.5-0.1 0.4 0.5 0 0.9 0.3 0.5 0.5 0.9 0.7 1.4 0.3 0.1 0.5 0.3 0.6 0.5 0.1 0.6 0.4 1.2 0.4 1.8 0.4 1 0.7 2 1 3.1 0.4-0.3 0.9-0.2 0.9 0.4 0.1 0.6-0.1 1.2-0.4 1.7 0.4 1.7 0.6 3.5 0.6 5.3h7.9c-0.1-5.1-1.3-10.2-3.3-14.8-0.2 0.1-0.4 0.1-0.6 0.5-0.4 0.5-1-0.1-1.4-0.6-0.7-0.8-2.2-3.1-2.9-3.2-0.6-0.1-1-0.9-1.6-1-0.6-0.1-1.4-0.5-1.5-1.1-0.1-0.7-0.3-0.9-1-1-0.8-0.1-1.3-0.4-1.9-1zm-22-20c6.6 0.2 12.9 1.9 18.6 4.9 0.5-0.1 1.1-0.1 1.4-0.3 0.7-0.3 2.1 0.4 2.8 0.8 0.6 0.4 1.1 0.9 1.8 1.2 0.7 0.4 1.8 1.5 2 2.6 0.2 1.1 0.9 1 0.6 1.5-0.2 0.2 0.1 0.3 0.4 0.5l5.5-5.5c-9-8.6-20.6-13.4-33.1-13.7zm3.9-0.2c-0.3 0.2-1.4-0.9-2-1.1-0.5-0.2-1.9 0.1-1.3-0.7 0.3-0.4 1.7-0.8 2.2-0.4 0.8 0.5 0 1.3 0.9 1.9 0.1 0.1 0.4 0.2 0.2 0.3zm2.8-2.4c-0.6 0.1-3.1 1-3.2 0-0.1-1.1 4.4-1.1 5.6-0.6 1.1 0.5-1.7 0.6-2.4 0.6zm-9.2 62.4c0.7 0.5 1.5-0.2 2-0.3 0.8-0.1 1.7-0.4 2.5-0.5 0.8-0.1 0 1.1 0.5 1.1 0.6 0.1 3 0.5 3.2-0.1 0.1-0.5 0.2-0.7 0.7-0.8 1-0.2 1.8-0.2 2.6-0.8 0.3-0.2 0.9-0.3 1.1-0.7 0.2-0.3-0.1-1.9-0.7-1.7-0.3 0.1-0.6 0.5-1.3 0.9-0.6 0.3-1 0.4-1.4-0.1-0.4-0.5 0.2-0.9 0.5-1.2 0.5-0.5 0.9-1 1.4-1 0.2 0 1.3-0.5 1.2-1-0.1-0.6-1.4 0.1-1.6-0.2-0.2-0.2 0-0.6-0.2-0.7-0.1-0.1-0.6 0.6-0.2 0.9 0.2 0.2-0.3 0.7-0.8 0.3-0.4-0.3-0.5 1.2-0.5 1.5 0 0.3 0.6 0.2 0.2 0.7-0.4 0.5-0.5 0.1-0.8 0.4-0.3 0.3-0.4 0.4 0 0.8 0.3 0.3-0.2 1-0.3 0.4-0.1-0.4-0.9-0.3-1.1-0.7-0.2-0.5-0.9-0.4-1.7-0.9-0.6-0.3-0.6 0.6 0.5 0.9 0.9 0.2 0.9 0.3 0.6 0.9-0.2 0.5-0.2-0.4-1.3-0.6-0.7-0.2-0.7-0.6-1.3-0.6-0.6 0-0.4 0.5-1 0.4-0.4-0.1-0.5 0.5-0.9 0.7-0.5 0.2-0.5 1.1-1 1.4-0.8 0.4-2.3 0.1-2.2-0.7 0.1-0.8 0.1-1.3 0.5-1.6 0.4-0.2 1 0.4 1.5 0.2 0.6-0.2 0.4-0.8 0.1-1.2-0.1-0.1-0.5-0.3-0.5-0.5 0-0.2 0.8-0.2 1.2-0.5 0.4-0.3 0.8-1 1-1.1 0.2-0.2 0.6-0.2 0.7-0.4 0.1-0.2-0.3-0.6-0.3-0.8 0-0.2 0.1-0.4 0.3-0.4 0.2 0 0.4 0.6 0.3 0.7-0.1 0.2 0.1 0.4 0.4 0.3 0.3-0.1 1.2-0.5 1.5-0.5 0.4-0.1-0.1-0.9 0-1.1 0.1-0.1 0.2 0 0.4-0.1 0.1-0.1-0.3-0.3-0.2-0.6 0.1-0.2 1-0.5 0.8-0.7-0.3-0.2-0.6 0.3-0.8 0.4-0.5 0.2-0.7-0.3-0.7-0.7 0-0.2 0.3-0.9 0-1-0.3-0.2-0.4 0.6-0.4 0.8-0.1 0.2-0.3 0.6 0.1 1.2 0.2 0.4 0.1 1.6-0.3 1.7-0.4 0.1-0.6-0.6-0.8-0.9 0-0.1-0.1-0.1-0.1-0.1 0 0 0 0-0.1 0 0 0 0 0-0.1 0.1 0 0-0.1 0.1-0.1 0.2 0 0.1-0.1 0.2-0.2 0.4 0 0.1-0.1 0.2-0.3 0.2-0.4 0-0.8 0.1-1.2 0.1-0.2 0-0.3 0-0.5 0 0.1 0.2 0.1 0.5 0.2 0.7 0.2 0.4 0.6 0.7 0.6 1.1-0.1 0.3-1.3 0.6-1.5 0.4-0.1-0.3 0.3-0.8 0.3-1.1-0.1-0.5-0.3-0.7-0.3-1.1-2.3-0.2-4.3-1.1-6-2.5l-5.6 5.6c2.8 2.5 6.2 4.1 10.1 4.7 0.6-0.3 0.9-0.9 1.3-0.6zm1.6-27.3c-0.1 0-0.1 0-0.2 0-0.9 0-1.8 0.1-2.7 0.4-0.1 0.1-0.2 0.2-0.1 0.3 0.2 0.3 0.9-0.3 1 0.3 0.1 0.4-0.7 0.1-0.7 0.4 0.1 0.3 0.6 0.2 0.6 0.5 0 0.3-0.3 1-0.6 1.2-0.4 0.2-2.2 0.5-2.4 0.9-0.2 0.4-0.3 0.7-0.6 1-0.3 0.3-1.8 1.2-1.8 1.5 0 0.6 0.7-0.2 0.9-0.4 0.3-0.3 0.8-0.3 1.3-0.6 0.7-0.4 0.9 1 0.2 1-0.4 0-0.8 1.3-1.5 1.1-0.2-0.1-0.7-0.4-0.8-0.1-0.1 0.3 1 0.4 1.4 0.6 0.9 0.6-0.7 0.6-1 0.7-0.3 0.2-0.1 0.5 0.2 0.4 0.3-0.1 0.8-0.5 1 0.1 0.3 0.8-1.3 3.6-1.8 3.3-0.3-0.2-0.5 0.1-0.7 0.2 0.3 0.6 0.7 1.3 1.2 1.8 0.3-0.5 0.8-1.2 1-1.2 0.3 0 0.2-0.2 0.3-0.4 0.1-0.2 0.5 0 0.5-0.3 0-0.3 0.9-0.8 1-1.3 0.1-0.3-0.3-0.5-0.1-0.8 0.2-0.3 0.3-0.3 0.5-0.4 0.2-0.1 0.6 0.4 0.7 0.2 0.1-0.2 0.7 0 1.2 0.3 0.2 0.1 0.6 0 0.9 0.3 0.4 0.5 0 0.5 0 0.7 0.1 0.1 0.2-0.1 0.3 0 0.2 0.2-0.9 0.8-0.8 1.2 0.1 0.4-0.9 2.1-1.2 2.4-0.4 0.4-1.1 0-1.3 0-0.3 0.1-0.3 0.3-0.8 0.2-0.3-0.1-0.7 0.1-1.1 0.2q1.2 1 2.6 1.6 0 0 0 0c0.2 0.2 0.4 0.2 0.6 0.2q1.3 0.4 2.7 0.4c0.5 0 1 0 1.4-0.1 0.3-0.4 0.4-0.8 0.5-1.3 0-0.3 0-0.6 0.1-0.8 0.1-0.2 0.9-1.1 1.1-1.1 0.3 0 0.4 0.2 0.8 0.1 0.7-0.2 1.2 0 1.2 0.3 0 0.4-0.9 0.3-0.9 0.6 0 0.2 0.7 0.4 0.9 0.2 0.4-0.5 0.3-1.1 0.2-1.2-0.3-0.4-0.3-0.5 0.1-0.4 0.3 0.1 0.3-0.9 0.5-1.3 0.3-0.5-0.6-0.2-1-0.1-0.4 0.1-0.7-0.7-0.7-1 0-0.2 0.7 0.7 1.1 0.7 0.4 0 0.9-0.4 0.9-0.8 0-0.3-0.8-0.4-0.9-0.8-0.1-0.2 0.6 0 0.6-0.2 0-0.2 0.1-0.7-0.4-0.9-0.4-0.2-0.8-1.6-1.2-1.7-0.3-0.1-0.6 0.3-0.8 0.5-0.2 0.2-0.5-0.1-0.3-0.3 0.2-0.2 0.8-0.7 0.9-1 0.2-0.6 1 0 0.8-0.8-0.1-0.9-0.9-0.7-0.6-1.2 0.4-0.4 0.1-1.2-0.7-1-0.3 0.1-0.7-0.5-0.7-1 0-0.3-0.8-0.2-0.8-0.5 0.1-0.6-0.8-0.6-1.3-0.6-0.5 0-1.5-0.8-1.7-1-0.1-0.2-0.8 0.2-0.6-0.6 0.2-0.8 1 0.1 1.3-0.1 0.4-0.1 0.4-0.3 0.3-0.5zm-2.6 10.1c-0.6-0.1-2.3-0.3-2.6-0.3-0.3 0-0.3-0.7-0.3-0.9 0-0.4 0.4-1 0.6-0.9 0.4 0.3-0.3 1 0.5 0.9 0.5-0.1 0.4-0.5 1.1-0.3 0.7 0.2 1.4 1.8 0.7 1.5zm-16.3 2.5c0.7 3.4 2.3 6.5 4.5 9l5.6-5.6q-0.7-0.9-1.2-1.8c-0.1 0.1-0.2 0.2-0.2 0.3-0.1 0.2 0 1.1-0.3 1.4-0.4 0.5-1.6-1-2-1.1-0.5-0.2-0.8 0.4-0.7 0.6 0.1 0.4 0 0.6-0.2 0.6-0.2 0-1.1-0.6-0.7-0.8 0.5-0.2-0.1-0.6-0.3-0.8-0.4-0.3-0.9 0-1.2-0.4-0.3-0.4-0.8-0.7-1-0.7-0.1 0-0.7-0.3-1-0.1-0.3 0.2-0.6-0.2-0.8-0.4-0.3 0.1-0.4 0-0.5-0.2zm-4.9 12.1c0.3 0.7 1 1.4 1 2.2 0 0.2 0 0.3 0 0.5 0.4 0.5 0.8 1 1.3 1.5l5.6-5.6c-2.6-2.9-4.5-6.6-5.2-10.6-0.2 0-0.3 0-0.4-0.1-0.1-0.2 0.1-0.4 0.3-0.6-0.1-0.6-0.1-1.2-0.2-1.8h-3.7c0 0.6 0.3 1.4-0.1 1.7-0.3 0.2-0.8 0-1.1 0-0.7 0.1-0.9 1-0.7 1.5 0.1 0.4 0.3 0.7 0.2 1.1-0.1 0.4-0.3 0.7 0.4 1 0.6 0.3 1.5 1.5 1.4 1.7-0.1 0.3-0.7-0.2-0.7 0.2 0 0.3 0.8-0.1 0.8 0.9 0 0.6 0.1 1.2 0.3 1.6 0.3 0.8 0.7 1.4 0.7 2.3-0.1 0.9-0.2 1.8 0.1 2.5zm0.7-10.3c0-0.3 0.4-1.1 0.4-2 0-0.7-0.2-1-0.1-1.1 0.1-0.1 0.4 0.6 0.5 1.2 0 0.7-0.3 2.4-0.4 2.5-0.2 0.4-0.5-0.3-0.4-0.6zm20.8 7c0.2-1 1.2-0.7 0.8-0.1-0.4 0.5-1 0.9-0.8 0.1zm-47.3-11.3c0.3 12.4 5.1 24.1 13.7 33.1l5.6-5.6c-1.1-1.2-2.1-2.4-3.1-3.7-0.4-0.2-0.9-0.4-1.2-0.8-0.5-0.6-0.7-1.5-1-1.5-0.2 0 0 0.6-0.5 0.6-0.7 0.1-1.7-1.6-2.1-2.3-0.5-0.7-1.2-0.7-1.6-1.4-0.1-0.2-0.4-0.8-0.6-0.4-0.4 0.6-1.7-1.3-2-1.2-0.3 0.1 0 0.5-0.2 0.7-0.4 0.3-1.5-1.5-1.9-1.3-0.4 0.2-0.5 0.4-0.5 0.9 0 0.5 0.6 1.8 0.4 1.9-0.3 0.1-1.9-3.9-1.6-4.1 0.2-0.1 0.2 0.2 0.4 0.1 0.2-0.1-0.2-0.4-0.3-0.9-0.1-0.5-0.5-0.5-0.5-1 0-0.5 0.7-0.3 0.7-0.6 0-0.2 0.1-0.5 0.3-0.7 0.2-0.2 0.8 0 0.9-0.7 0.1-0.6 0.4 0 0.5 0.4 0.1 0.5 1.4 0.7 1.5 0.3 0-0.2-0.5-0.2-0.5-0.4 0-0.4 0.7 0 1.2 0 0.2 0 0.6-0.3 1.1-0.1 0.5 0.3 0.9 0.4 1.2 0.5-1.2-3.7-1.9-7.7-2-11.8zm45-11.4c0.4-0.7 1.2-1.4 1.3-1.3 0.1 0.1-0.5 0.6-0.8 1.1 0.9-0.3 1.9-0.6 2.8-0.7v-7.9c-4.4 0.3-8.5 2-11.6 4.8l5.6 5.6c0.6-0.5 1.3-1 2.1-1.4 0.2 0 0.4-0.1 0.6-0.2zm-4.2 12.7v-0.3c0 0 0-0.1 0.1-0.1 0.1-0.1 0.2-0.1 0.3-0.1 0.2 0 0.4 0.2 0.7 0.2 0.2 0 0.3 0 0.5-0.2 0.1-0.1 0.1-0.2 0.2-0.3 0-0.1 0.1-0.2 0.1-0.3v-0.1c0-0.1-0.2-0.1-0.4 0-0.1 0-0.3 0-0.4 0h-0.1c-0.1 0-0.2-0.1-0.3-0.2l-0.1-0.1c0-0.1-0.1-0.1-0.1-0.2-0.1-0.2-0.3-0.3-0.6-0.4-0.1-0.1-0.2-0.1-0.3-0.2-0.1 0-0.1-0.1-0.2-0.2l-0.2-0.2c0 0 0 0-0.1 0 0 0 0 0-0.1-0.1 0 0 0 0-0.1-0.1 0 0 0 0-0.1 0 0 0-0.1 0-0.2 0h-0.2c-0.3-0.1-0.5 0-0.8 0.3l-0.1 0.1c0 0.1-0.1 0.1-0.1 0.2 0 0.1-0.1 0.1-0.1 0.2-0.1 0.2-0.2 0.3-0.2 0.5-0.6 1.7-1.4 1.2-1.3 1.8 0 0.1 0.2 0.1 0.5 0.1q0.2 0 0.3 0c0.1 0 0.3 0 0.4 0 0.1 0 0.3 0 0.4 0 0.1 0 0.1 0 0.2 0 0 0 0.4 0 0.5 0 0.1 0 0.1 0 0.2-0.1 0.1 0 0.2-0.1 0.3-0.1 0.1 0 0.2 0 0.2-0.1 0.2 0 0.3 0 0.4 0 0.1 0 0.3 0.1 0.4 0.3 0.1 0.2 0.2 0.4 0.2 0.6v-0.2c0.2-0.4 0.2-0.4 0.2-0.5 0 0.1 0 0 0 0 0-0.1 0-0.2 0-0.2zm-14.4 5.5c-0.1-0.5-0.4-1.3-0.2-1.3 0.2 0 0.2 0.5 0.3 0.5 0.2 0 0.2-0.4 0.4-0.2 0.2 0.2 0.2 1.2 0.2 1.6 0 0.6-0.5-0.1-0.7-0.6zm-5.5-1.7c0.8 0.3 2.3-0.4 1.2-1.6-0.5-0.5 0.3-2 0.4-2.3 0.1-0.3 0.8-0.7 1-1.2h-3.3c0.1 1.7 0.3 3.4 0.7 5.1zm0.6 20.2c-0.6-0.4-1.1-0.6-1.5-0.4h-0.1c0.3 0.3 0.6 0.7 0.9 1zm8.4-35c0.9-2.1 2.2-4 3.7-5.7l-5.6-5.6c-4.6 5-7.5 11.5-7.8 18.7h3.9c0.7-1.1 0.4-1.9 0.7-2.5 0.2-0.6 0.6-1.1 0.9-1.6 0.3-0.5 0.6-1 1.2-1 1.3 0 1.6-0.7 2.4-1 0.8-0.4 2.2-0.6 2.1-1-0.1-0.3-3 0.8-3 0.6-0.1-0.4 0.9-0.3 1.3-0.7 0.1-0.1 0.1-0.1 0.2-0.2zm5.3-4.1c-1 1.1-1.9 2.3-2.6 3.7 0.1 0 0.2-0.1 0.2-0.1 1-0.5 2.2-0.4 2.8-0.2 0.7 0.3 1.6 1.1 2 1.4 0.2 0.1 0.3-0.1 1.1-0.2 0.3 0 0.4 0.3 0.9 0.4 0.2 0 0.4 0 0.5 0zm-6.9 10q-0.6-0.3-1.2-0.3c-0.6-0.1-1.2 0.2-1.6 0.7-0.2 0.4-0.3 0.8-0.2 1.2h2.8c0.1-0.5 0.1-1.1 0.2-1.6zm9.1 10.2c0-0.2 0.8-0.5 0.9-0.1 0.1 0.4-0.1 1.2-0.3 1.2-0.2 0-0.8-0.9-0.6-1.1zm-2.2-23.3c3.5-3.2 8.1-5.2 13.2-5.5v-7.9c-7.2 0.3-13.8 3.2-18.7 7.8zm-7.2-7.2c5.4-5 12.5-8.2 20.3-8.4v-7.9c-10 0.3-19.1 4.3-25.9 10.7zm-7.1-4c-6.5 6.8-10.5 15.9-10.8 25.9h7.9c0.3-7.8 3.4-14.9 8.4-20.3zm-10.8 28.1c0.1 4.1 0.9 8 2.1 11.7h0.1c0.8 0 1.9 0 2.4-0.4 0.8-0.6 0.1-2.7 0.5-3.6 0.6-1.1 2.1-3.7 2.6-3.8 0.4 0 0.4 0.3 0.6 0.3-0.2-1.4-0.4-2.8-0.4-4.3h-7.9zm38.2 40.4c-10.6-0.3-20.3-4.6-27.4-11.4l-5.6 5.6c9 8.6 20.6 13.4 33.1 13.7v-7.9zm0-10.1c-7-0.2-13.6-2.8-19-7.2 0.1 0.1 0.2 0.3 0.3 0.4 0.4 0.6 1.6 1.9 0.8 2.4-0.7 0.4-1.8 0.1-2.4 0.1-0.7 0-1.7 1-2.3 1.1-0.7 0.1-1.2 0.1-1.9-0.2-0.2-0.1-0.4-0.2-0.6-0.4l-0.9 0.9c6.8 6.4 15.9 10.5 25.9 10.7v-7.8zm0-2.8c-1.1 0.1-2.8 0.1-3.2-0.2-0.8-0.6-1.8-1.1-1.9-1.6-0.2-0.8-1.3-1.4-1.3-2.1 0-0.8 1.1-1.1 0.8-1.9-0.2-0.7 0.4-1.5 1.6-2.1-3.5-0.9-6.6-2.6-9.2-4.9l-5.6 5.6c5.1 4.8 11.7 7.5 18.8 7.8zm-1-20.3q-0.2 0.1-0.5 0.2-0.3-0.1-0.6-0.2c-0.2-0.3 0-0.5-0.1-0.7 0-0.2 0.3-0.2 0.4 0 0.1 0.2 0.6 0 0.8 0.1 0.1 0.1 0.2 0.4 0 0.6zm3.2 41.1c12.4-0.3 24.1-5.1 33.1-13.7l-5.6-5.6c-2.9 2.7-6.2 5.1-9.8 6.9-1.2 0.9-2.6 1.5-3.7 2-0.5 0.2-1 0.5-1.5 0.5-0.2 0-0.3-0.1-0.5-0.1q-5.7 2-12 2.1zm0-20.2c1.3 0 2.6-0.2 3.8-0.4-0.3-0.3-0.8-0.3-1.2-0.2-1.2 0.3-0.8-0.7-2.6-0.4zm4.7 1.7c-1.5 0.3-3.1 0.5-4.7 0.5v7.9c3.2-0.1 6.3-0.6 9.3-1.4-0.6-0.5-0.9-1.4-1.7-1.6-1.3-0.5-1.7-1.3-1-2.4 0.4-0.6 0.2-0.9-0.2-1.6-0.5-0.8-1.2-1.2-1.7-1.4zm24.2-44.7c-0.1-0.4-0.7-1.7-0.5-1.8 0.3-0.1 1.1 1.8 1.3 2.4 0.3 1.1 0.5 1.9 0.7 2.9 0 0.3 0 1.2-0.2 1.3-0.4 0.2-0.5-1.2-0.6-1.7-0.1-0.4-0.8-2.2-0.8-2.4 0-0.3 0.1-0.4 0.1-0.7zm-15.7 31.5c-0.4-0.1-2.6-1-2.6-0.7 0 0.4-0.4 0.1-0.5 0.2-0.1 0.1 3.1 1.6 3.6 1.7 0.3 0.1 1 0.3 2.2 0.1 0.8-0.2 1 0.2 1.4 0.2 0.5 0 0.9-0.7 1.2-1.2 0.8-1.1 0.6-1.3 0.9-1.5 0.3-0.2 1.1 1.5 1 2.6 0 0.2 0 0.3-0.1 0.5l0.1 0.1c4.6-5 7.5-11.5 7.8-18.7h-6c0.2 0.3 0.6 0.8 0.9 1.6 0.3 0.6 0.5 1.6 1 1.7 0.8 0.1 1.7 0.8 1.7 1.3 0 1.2-3.7 1.5-4.2 1.3-0.4-0.1-0.7-0.2-0.7 0.5 0 0.7-1.3 0.7-1.9 1.2-0.6 0.5-0.6 1.4-1 2-0.2 0.4-1.6 1.7-2 1.9-0.9 0.6-2.6 0.7-1.8 1.1 0.5 0.3 1.8 0.4 1.6 0.1-0.2-0.3 0.1-0.4 0.3-0.1 0.2 0.2 0.7-0.2 0.7-0.6 0-0.4-0.1-0.9 0.2-1 0.5 0 1.1-0.6 1.4-0.6 0.3 0.1 0.7 0.7 0.4 2.8-0.3 2-1.3 3.5-1.7 4.1-0.4 0.7-0.8 0.2-1.4-0.1-0.6-0.2-1.7-0.2-2.5-0.5zm7.1 12.3c-0.3 0.6 1 0.9 0.7 1.5-0.2 0.5-1.3 1.4-1.1 1.7 2.1-1.4 4.1-2.9 6-4.6l-5.6-5.6c-0.4 0.4-0.8 0.7-1.2 1.1-0.1 0.6 0 1.1 0.8 1.4 0.8 0.3 2.3 1.1 2 2-0.4 0.6-1.2 1.7-1.6 2.5zm3.4-32.4c0.4 0.6-1 0.4-1.3 1.2 0 0 0 0.1-0.1 0.1h5.8c0-0.8-0.1-1.7-0.2-2.5 0 0.1-0.1 0.2-0.1 0.3-0.4 0.9-0.5 0.4-0.5 0 0-0.5 0.2-1 0.4-1.5 0-0.3-0.1-0.5-0.1-0.8-0.2 0.2-0.4 0.4-0.8 0.6-0.3 0.1-0.5 0.7-0.6 1-0.1 0.3-0.8-0.1-1.3 0.2-0.9 0.4-1.9 0.4-1.2 1.4zm-3.1-12.1c-0.2-0.4-0.1-0.8 0-0.9 0 0 0.7-1.1 1.1-1.1 0.5 0 0.7 0.6 0.7 1.1 0 0.3 0 0.5-0.4 0.7-0.3 0.2-0.7-0.3-1 0-0.3 0.2 0.3 0.9 0.3 1.2 0.1 0.4-0.2 0.6-0.5 0.8-0.3 0.2-0.8 0.3-1 0.2-0.4-0.2-0.3-0.7 0.1-0.7 0.7 0 0.8-0.7 0.7-1.3zm-5.3 4.8c-0.5-0.9-1.1-1.7-1.8-2.5-0.3 0-0.5-0.1-0.7-0.1l-1.8 1.7c0.4 0.1 0.7 0 1.2 0.2 0.5 0.2 0.2-1.4 1-1.2 0.8 0.1 1 0.6 0.3 0.9-0.5 0.2 0.1 0.6-0.5 0.8-0.6 0.2 0.5 0.7 0.4 0.9 0 0.3-0.8 0.4 0.4 0.8 1.1 0.4 0-1 0.2-1.1 0.2-0.2 0.8 0.4 1 0.1 0.1-0.2 0.2-0.4 0.3-0.5zm10.4 14.4c-0.2 0 0.3-0.7 0.8-0.7 0.4 0 0.5 0.8 0 0.9-0.3 0.1-0.6-0.2-0.8-0.2zm8.9 29.5c8.6-9 13.4-20.6 13.7-33.1h-7.9c-0.3 10.6-4.6 20.3-11.4 27.4zm13.7-35.3c-0.3-12.4-5.1-24.1-13.7-33.1l-5.9 5.9q0.8 1.4 3 3.6c0.6 0.6 1.2 1.2 1.7 1.7 0.5 0.5 3.7 4.5 3.1 5l-0.1 0.1c2.5 5.2 3.9 11 4 16.8zm-26-36.3c-0.2-0.3 0.8-0.6 1.5 0 0.7 0.6 0.7 1.5 0.3 1.3-0.4-0.2-1.6-1.1-1.8-1.3zm-22.3 6c6.7 0.2 12.9 2.6 17.9 6.4-0.6-0.7-1.1-1.5-1.4-1.8-0.5-0.5-2.3-1.1-2.1-1.4 0.2-0.3 1.8 1 2.1 0.8 0.3-0.3-0.8-1.8-0.7-1.8 0.1-0.1 1.5 1.2 2.1 2.4 0.3 0.4 1 0.2 1.6 0.6 0.5 0.4 0.5 0.9 1 1.3 0.1 0.1 1 0.6 0.4 0.5-0.2 0-0.4-0.3-0.6-0.2-0.1 0.1 0.1 0.7 0.4 1.3l2.6-2.6c-0.4-0.8-1.1-1.8-1.7-1.9-0.5-0.1-0.9 0.3-1.2 0.6-0.4 0.3-0.8 0.4-0.9 0.2-0.1-0.2 0.1-0.8 0-1.1 0-0.3-0.3-0.5-0.4-0.8-0.2-0.7 0.1-1.5-0.3-1.9-0.5-0.5-0.8-1.3-1.1-1.8-0.4-0.6-1.1-1.6-1.1-2.4-5.1-2.6-10.8-4-16.6-4.2zm0 10.1c5 0.3 9.6 2.3 13.2 5.5l5.6-5.6c-5-4.6-11.5-7.5-18.7-7.8v7.9zm6.3 11.6c-0.3-0.3 1.2-2.1 1.6-1.9 0.2 0.1-1.5 2-1.6 1.9zm-11.5 7.3c1.2 0 0.8 1 0.4 1-0.4 0-0.2-0.3-0.4-0.3-0.2 0-0.2 0.3-0.6 0.3-0.2 0-0.4-0.9 0.6-1zm3-47c-12.4 0.3-24.1 5.1-33 13.7l5.6 5.6c7.2-6.8 16.8-11.1 27.4-11.4zm-34.6 15.2c-8.6 9-13.4 20.6-13.7 33.1h7.9c0.3-10.6 4.6-20.3 11.4-27.4z"/>
</svg>