<?xml version="1.0" encoding="utf-8"?>
<!-- Generator: Adobe Illustrator 26.5.0, SVG Export Plug-In . SVG Version: 6.00 Build 0)  -->
<svg version="1.1" id="Layer_1" xmlns="http://www.w3.org/2000/svg" xmlns:xlink="http://www.w3.org/1999/xlink" x="0px" y="0px"
	 viewBox="0 0 292.7 137" style="enable-background:new 0 0 292.7 137;" xml:space="preserve">
<style type="text/css">
	.st0{fill:#3A8DDE;}
</style>
<g>
	<g>
		<g>
			<path class="st0" d="M39,11.2c-3.9,3.3-6.4,7.7-9.3,11.6c-2.5,3.2-5.8,5.3-8.7,7.9c1.5-3.2,1.8-6.9,3.9-10.1
				C28.2,15.3,33.7,13.2,39,11.2 M18.1,22.9c1.9-2.2,4.3-3.9,6.9-4.6c-5.1,3.6-4.8,9.8-6.5,15.2c-0.6,1.9-1.4,3.7-1.9,5.8h0.1
				c0.8-2.2,2.3-4.4,4.3-6.2c3.6-3.5,9.1-5.5,10.9-10.5c-0.1,6.9-5.9,12.3-11.5,16.3c-2.5,1.8-4.4,4.3-5.8,6.9
				c0.3-1.9,0.3-3.5,0.1-5.4C14.2,34.4,14,27.5,18.1,22.9 M7.6,43.7c0-6.1,2.3-11.2,5.9-15.8c0.1,0,0.1-0.1,0.3-0.1
				c-3.9,6.1-0.3,13.7-0.7,20.5l-0.6,7c0.1,0,0.1,0.3,0.3,0.1c0.3-0.8,0.3-1.7,0.4-2.3c1-5.7,5.9-9.5,10.1-13.5c1-1,1.7-2.1,2.2-3.3
				c-0.4,2.8-1.1,5.7-2.3,8.3C20,51.1,13.7,56.5,12.6,64C12,56.5,7.6,51.3,7.6,43.7 M4.7,52.4c0.4-1.9,0.8-3.9,1.7-5.7
				c-1.5,8.2,3.9,14,5.7,21c0.7,2.6,1,5.5,2.1,7.9c0.1,0,0.1,0,0.3-0.1c-2.6-7.5,1.2-14.4,5.1-20.3c1-1.5,1.5-3.3,1.9-5.1
				c0.4,3.5-0.3,7.3-1,10.8c-1,4.6-2.5,8.8-3.7,13.1c-0.8,2.8-0.6,5.8-0.1,8.6l-0.4-0.3c-2.9-5.3-8.4-9.3-10.1-15.1
				C4.7,62.7,3.7,57.3,4.7,52.4 M4.4,68.2c0.7,8.6,9.8,13.3,14.2,20.3c1,1.5,1.9,3,3.3,4.3c-0.3-1-1-1.8-1.4-2.6
				c-1.4-3-2.1-6.5-1.7-10.2c0.4-4.4,2.2-8.4,1.5-13.1c3.7,8.2,2.5,18.2,4.7,27.1c0.4,1.9,1.7,3.6,2.3,5.5
				c-3.7-2.8-8.6-5.3-12.6-8.6c-3.9-3-7.3-6.8-9.1-11.5C4.4,76.1,4.1,72.1,4.4,68.2 M9,88c4.3,9.8,15.2,10.5,22.4,16.6
				c1.4,1.1,2.8,2.2,4.3,2.9l0.1-0.1c-1.7-1.5-3.5-3.3-4.7-5.1c-4.1-5.9-2.8-14.2-5.9-20.6c2.9,3.5,5.7,7,7.3,10.9
				c2.6,6.4,3.6,13.7,9.5,18.5c-6.5-2.2-14-1.7-19.9-5.5C15.9,101.6,10.2,95.2,9,88 M20.2,106.2c6.9,7.9,18.2,5.4,27.5,7.3
				c1.2,0.3,2.5,0.7,3.9,0.6c-1.1-0.7-2.5-0.8-3.9-1.2c-7.2-2.8-8.3-10.4-12.2-15.6c5,3.3,9.1,7.9,13.8,12.2c3.3,3,7.3,4.3,11.6,5.1
				c-1,0.4-2.3,0.3-3.5,0.6c-7.6,1.9-16,4.8-24.1,2.2C28.2,115.5,22.8,111.5,20.2,106.2 M97.4,128.1c-0.8,1-1.9,1.9-3,2.8
				c-6.6-6.9-14.5-14.5-22-14.5c-4.6,0-8,3.5-11.9,5.9c-5.4,3.5-12.9,5.4-19.1,2.9c-3.5-1.2-6.8-3.2-9.1-6.4
				c5,3.5,12.4,3.9,18.1,1.5c6.2-2.6,12.6-6.1,19.6-6.1C80.6,114.2,90.5,121.5,97.4,128.1 M116.4,11.2c3.9,3.3,6.4,7.7,9.3,11.6
				c2.5,3.2,5.8,5.3,8.7,7.9c-1.5-3.2-1.8-6.9-3.9-10.1C127.2,15.3,121.6,13.2,116.4,11.2 M137.3,22.9c-1.9-2.2-4.3-3.9-6.9-4.6
				c5.1,3.6,4.8,9.8,6.5,15.2c0.6,1.9,1.4,3.7,1.9,5.8h-0.1c-0.8-2.2-2.3-4.4-4.3-6.2c-3.6-3.5-9.1-5.5-10.9-10.5
				c0.1,6.9,5.9,12.3,11.5,16.3c2.5,1.8,4.6,4.3,5.8,6.9c-0.3-1.9-0.3-3.5-0.1-5.4C141.1,34.4,141.5,27.5,137.3,22.9 M147.8,43.7
				c0-6.1-2.3-11.2-5.9-15.8c-0.1,0-0.1-0.1-0.3-0.1c4,6.1,0.4,13.5,0.8,20.5l0.6,7c-0.1,0-0.1,0.3-0.3,0.1
				c-0.3-0.8-0.3-1.7-0.4-2.3c-1-5.7-5.9-9.5-10.1-13.5c-1-1-1.7-2.1-2.2-3.3c0.4,2.8,1.1,5.7,2.3,8.3c3.2,6.5,9.5,11.9,10.6,19.4
				C143.3,56.5,147.8,51.3,147.8,43.7 M150.8,52.4c-0.4-1.9-0.8-3.9-1.7-5.7c1.5,8.2-3.9,14-5.7,21c-0.7,2.6-1,5.5-2.1,7.9
				c-0.1,0-0.1,0-0.3-0.1c2.6-7.5-1.2-14.4-5.1-20.3c-1-1.5-1.5-3.3-1.9-5.1c-0.4,3.5,0.3,7.3,1,10.8c0.8,4.6,2.3,8.7,3.6,13.1
				c0.8,2.8,0.6,5.8,0.1,8.6l0.4-0.3c2.9-5.3,8.4-9.3,10.1-15.1C150.8,62.7,151.6,57.3,150.8,52.4 M150.9,68.2
				c-0.6,8.6-9.8,13.3-14.2,20.3c-1,1.5-1.9,3-3.3,4.3c0.3-1,1-1.8,1.4-2.6c1.4-3,2.1-6.5,1.7-10.2c-0.4-4.4-2.2-8.4-1.5-13.1
				c-3.7,8.2-2.5,18.2-4.7,27.1c-0.6,1.9-1.7,3.6-2.3,5.5c3.7-2.8,8.6-5.3,12.6-8.6c3.9-3,7.3-6.8,9.1-11.5
				C150.9,76.1,151.4,72.1,150.9,68.2 M146.4,88c-4.3,9.8-15.2,10.5-22.4,16.6c-1.4,1.1-2.8,2.2-4.3,2.9l-0.1-0.1
				c1.7-1.5,3.5-3.3,4.7-5.1c4.1-5.9,2.8-14.2,5.9-20.6c-2.9,3.5-5.7,7-7.3,10.9c-2.5,6.5-3.5,13.8-9.4,18.7
				c6.5-2.2,14-1.7,19.9-5.5C139.5,101.6,145.1,95.2,146.4,88 M135.3,106.2c-6.9,7.9-18.2,5.4-27.5,7.3c-1.2,0.3-2.5,0.7-3.9,0.6
				c1.1-0.7,2.5-0.8,3.9-1.2c7.2-2.8,8.3-10.4,12.2-15.6c-5,3.3-9.1,7.9-13.8,12.2c-3.3,3-7.3,4.3-11.6,5.1c1,0.4,2.3,0.3,3.5,0.6
				c7.6,1.9,16,4.8,24.1,2.2C127.2,115.5,132.7,111.5,135.3,106.2 M57.9,128.1c0.8,1,1.9,1.9,3,2.8c6.6-6.9,14.5-14.5,22-14.5
				c4.6,0,8,3.5,11.9,5.9c5.4,3.5,12.9,5.4,19.1,2.9c3.5-1.2,6.8-3.2,9.1-6.4c-5,3.5-12.4,3.9-18.1,1.5c-6.2-2.6-12.6-6.1-19.6-6.1
				C74.9,114.2,65,121.5,57.9,128.1"/>
			<path class="st0" d="M124.4,80.7l-1.1-0.6c-2.3,5-5.5,9.4-9.4,13.3l-6.6-6.6c3.2-3.3,5.8-7,7.7-11.2l-1.1-0.6
				c-1.9,4-4.4,7.7-7.6,10.9l-5.9-5.9c2.6-2.6,4.6-5.7,6.1-9l-1.1-0.6c-1.4,3.2-3.5,6.2-5.8,8.7L93,72.5c1.8-1.9,3.3-4.1,4.3-6.6
				l-1.1-0.6c-1,2.3-2.3,4.6-4,6.4l-5.9-6.1c1.7-1.9,2.8-4.3,2.9-6.9h8.4c-0.1,2.3-0.6,4.4-1.4,6.5l1.1,0.6c0.8-2.2,1.4-4.7,1.5-7.2
				h9.3c-0.1,4.1-1,8-2.6,11.6l1.1,0.6c1.7-3.9,2.6-8,2.8-12.3h8.4c-0.1,5.8-1.4,11.3-3.7,16.3l1.1,0.6c2.5-5.3,3.9-10.9,3.9-16.9
				h9.4c-0.1,7.6-1.9,14.9-5,21.4L124.4,80.7c3.3-6.9,5.1-14.7,5.1-22.7c0-6.8-1.2-13.4-3.7-19.5l-1.1,0.6
				c2.3,5.8,3.6,11.9,3.7,18.4H119c-0.1-5.1-1.1-10.1-2.9-14.7l-1.2,0.6c1.8,4.4,2.8,9.3,2.8,14.1h-8.4c-0.1-3.7-0.8-7.3-2.1-10.8
				l-1.1,0.6c1.2,3.3,1.9,6.8,2.1,10.4h-9.4c0-2.3-0.6-4.6-1.2-6.6l-1.1,0.6c0.7,1.9,1.1,4,1.1,6.1h-8.4c-0.1-2.6-1.1-5-2.9-6.9
				l5.9-5.9c1.8,1.9,3.3,4.3,4.1,6.8l1.1-0.6c-1-2.6-2.5-5.1-4.4-7.2l6.6-6.6c2.8,2.9,5,6.4,6.4,10.1l1.1-0.6
				c-1.5-3.9-3.7-7.3-6.6-10.5l5.9-5.9c3.7,3.9,6.5,8.3,8.4,13.1l1.1-0.6c-1.9-5-5-9.5-8.7-13.4l6.6-6.6c4.7,4.8,8.3,10.4,10.8,16.4
				l1.1-0.6c-2.6-6.4-6.4-12.2-11.5-17.3c-5-5-10.9-8.8-17.3-11.5L96.5,11c6.1,2.5,11.6,6.1,16.4,10.8l-6.6,6.6
				c-3.9-3.7-8.3-6.6-13.3-8.6l-0.3,1.1c4.7,1.9,9,4.7,12.9,8.4l-5.9,5.9c-2.9-2.8-6.2-5-10-6.5l-0.4,1.1c3.5,1.4,6.6,3.5,9.5,6.2
				l-6.6,6.6c-1.8-1.8-4-3.2-6.2-4.1l-0.4,1.1c2.2,0.8,4.1,2.2,5.8,3.9l-5.9,5.9c-1.9-1.7-4.3-2.8-6.9-2.9v-8.4
				c2.5,0.1,4.8,0.6,7,1.5l0.4-1.1c-2.3-1-4.8-1.5-7.5-1.7v-9.4c3.7,0.1,7.5,0.8,10.9,2.2l0.4-1.1c-3.6-1.5-7.3-2.2-11.3-2.3v-8.4
				c5,0.1,10,1.1,14.4,2.9l0.4-1.1c-4.7-1.9-9.7-2.9-14.9-3V7.3c6.4,0.1,12.6,1.4,18.2,3.6L97,9.8c-6.1-2.5-12.6-3.7-19.4-3.7
				c-8.3,0-16.2,1.9-23.2,5.5l0.6,1.1c6.8-3.5,14.2-5.3,22.1-5.4v9.4c-6.4,0.1-12.3,1.7-17.7,4.3l0.6,1.1c5.3-2.6,11.1-4,17.1-4.1
				v8.4c-4.7,0.1-9.1,1.2-13.1,3.2l0.6,1.1c3.9-1.9,8.2-2.9,12.6-3v9.4c-2.9,0.1-5.7,0.8-8.3,1.9l0.5,1.1c2.3-1.1,5-1.8,7.7-1.8v8.4
				c-1.4,0.1-2.6,0.4-3.7,0.8l0.6,1.1c1.2-0.4,2.5-0.7,3.7-0.7c2.6,0,5.1,1.1,7,2.9c1.9,1.9,2.9,4.4,2.9,7c0,5.5-4.4,10-10,10
				c-2.6,0-5.1-1.1-7-2.9c-1.9-1.9-2.9-4.4-2.9-7s1.1-5.1,2.9-7c1-1,2.1-1.7,3.3-2.2l-0.6-1c-1.1,0.6-2.2,1.1-3.2,1.9l-5.9-5.9
				c1.5-1.5,3.3-2.6,5.1-3.5l-0.6-1.1c-2.1,1-3.9,2.2-5.5,3.7l-6.6-6.6c2.3-2.2,5-4,7.7-5.4l-0.6-1.2c-3,1.5-5.7,3.3-8,5.7l-5.9-5.9
				c3-2.9,6.5-5.4,10.1-7.2l-0.6-1.1c-3.9,1.9-7.3,4.4-10.4,7.3l-6.6-6.6c3.9-3.7,8.2-6.8,12.7-9.1l-0.7-1
				c-9.9,5-18.2,13.3-23.2,23.4l1.1,0.6c2.3-4.7,5.4-9.1,9.3-13l6.6,6.6c-3,3.2-5.7,6.9-7.6,10.9l1.1,0.6c1.8-3.9,4.3-7.5,7.3-10.6
				l5.9,5.9c-2.3,2.5-4.4,5.4-5.9,8.7l1.1,0.6c1.4-3,3.3-5.8,5.7-8.3l6.6,6.6c-1.7,1.8-3,3.9-4,6.2l1.1,0.6c0.8-2.2,2.2-4.1,3.9-5.9
				l5.9,5.9c-1.7,1.8-2.8,4.3-2.9,6.9h-8.4c0.1-2.5,0.6-4.7,1.5-6.9L58.3,50c-1,2.3-1.5,4.8-1.7,7.6h-9.4c0.1-4.1,1-8.3,2.8-12
				l-1-0.7c-1.8,3.9-2.8,8.2-2.9,12.6h-8.4c0.1-5.8,1.4-11.5,3.9-16.6l-1.1-0.6c-2.5,5.3-4,11.1-4,17.3h-9.4
				c0.1-7.6,1.9-15.1,5.1-21.7l-1.1-0.7c-3.5,6.9-5.4,14.7-5.4,22.9c0,5,0.7,10,2.1,14.7l1.2-0.3c-1.2-4.4-1.9-9-2.1-13.7h9.4
				c0,3.9,0.7,7.7,1.8,11.5l1.2-0.3c-1.1-3.6-1.7-7.3-1.8-11.1h8.4c0,3.2,0.6,6.1,1.5,9l1.2-0.3c-0.8-2.8-1.4-5.7-1.5-8.7h9.5
				c0,2.2,0.4,4.4,1.2,6.5L59,65c-0.7-1.9-1.1-4-1.1-6.1h8.3c0.1,2.6,1.1,5,2.9,6.9l-5.9,5.9c-1.8-1.9-3.3-4.3-4.1-6.8l-1.2,0.3
				c1,2.6,2.5,5.1,4.4,7.3l-6.6,6.6c-3.2-3.3-5.5-7.3-6.9-11.6l-1.2,0.3c1.4,4.6,3.9,8.7,7.3,12.2L49,85.9
				c-4.4-4.6-7.7-10.1-9.5-16.2L38.3,70c1.9,6.2,5.3,11.9,9.8,16.7l-6.6,6.6c-5.8-5.9-10.1-13.3-12.3-21L28,72.6
				c2.3,8.3,6.9,15.8,13.1,22.1c4.3,4.3,9.1,7.6,14.4,10.1l0.6-1.1c-5-2.3-9.5-5.5-13.5-9.5l6.6-6.6c3.5,3.3,7.3,5.9,11.6,7.9
				l0.6-1.1c-4.1-1.9-8-4.4-11.3-7.7l5.9-5.9c2.8,2.8,6.1,4.8,9.5,6.4l0.6-1.1c-3.5-1.4-6.5-3.5-9.3-6.1l6.6-6.6
				c2.1,2.1,4.6,3.5,7.3,4.4l0.7-1.1c-2.6-0.8-5-2.3-7-4.3l5.9-5.9c1.9,1.7,4.3,2.8,6.9,2.9v8.4c-2.1,0-4-0.4-5.8-1.1l-0.7,1
				c2.1,0.7,4.3,1.1,6.5,1.2v9.4c-3.9-0.1-7.6-0.8-11.1-2.3l-0.6,1.1c3.7,1.5,7.6,2.3,11.7,2.5v8.4c-5.5-0.1-10.9-1.4-15.9-3.6
				l-0.6,1.1c5.1,2.3,10.8,3.6,16.6,3.7v9.4c-7.5-0.1-14.7-1.8-21.1-4.8l-0.6,1.1c6.9,3.3,14.5,5.1,22.4,5.1
				c8.3,0,16.2-1.9,23.4-5.5l-0.6-1.1c-6.6,3.3-14.2,5.4-22.1,5.4v-9.4c6.4-0.1,12.4-1.7,17.8-4.4l-0.6-1.1
				c-5.3,2.6-11.1,4.1-17.3,4.3v-8.4c4.7-0.1,9.3-1.2,13.4-3.3l-0.6-1.1c-3.9,1.9-8.3,3-12.9,3.2v-9.5c3-0.1,5.9-0.8,8.6-2.1
				L86.5,76c-2.5,1.2-5.1,1.9-8,1.9v-8.4c2.5-0.1,5-1.1,6.9-2.9l5.9,5.9c-1.4,1.4-3,2.5-4.8,3.3l0.6,1.1c1.9-1,3.6-2.1,5.1-3.6
				l6.6,6.6c-2.2,2.1-4.7,3.9-7.5,5.3l0.6,1.1c2.8-1.4,5.5-3.3,7.9-5.5l5.9,5.9c-2.9,2.8-6.2,5.3-10,7l0.6,1.1
				c3.7-1.9,7.2-4.3,10.2-7.3l6.6,6.6c-3.7,3.6-7.9,6.6-12.6,9l0.6,1.1c4.8-2.5,9.4-5.7,13.3-9.7C118.6,90.7,121.9,86,124.4,80.7
				L124.4,80.7z"/>
			<polygon class="st0" points="80.3,46.1 80.3,46.4 80.7,46.4 80.7,46.1 			"/>
			<rect x="79.9" y="45.6" class="st0" width="0.4" height="0.3"/>
			
				<rect x="79.2" y="45.1" transform="matrix(0.1429 -0.9897 0.9897 0.1429 23.0976 117.3549)" class="st0" width="0.3" height="0.4"/>
			<rect x="78.6" y="45" transform="matrix(0.1335 -0.991 0.991 0.1335 23.4593 117.1346)" class="st0" width="0.3" height="0.4"/>
			<rect x="75.7" y="44.9" class="st0" width="0.4" height="0.3"/>
			<rect x="75" y="45.3" transform="matrix(0.1429 -0.9897 0.9897 0.1429 19.3774 113.354)" class="st0" width="0.3" height="0.4"/>
			<polygon class="st0" points="74.5,46 74.9,46 75.1,45.7 74.6,45.6 			"/>
			<polygon class="st0" points="74.1,46.1 74.2,46.4 74.5,46.4 74.5,46.1 			"/>
			<polygon class="st0" points="32.6,78.5 32.6,79 33,79 33,79.7 33.4,79.7 33.3,78.8 32.9,78.8 32.9,78.5 			"/>
			<polygon class="st0" points="35.7,81.8 35.9,82.3 36.3,82.8 36.9,83.5 37,83.2 36.8,82.3 36.3,82.1 36.1,81.3 35.2,81 			"/>
			<polygon class="st0" points="47.7,97.2 47.7,97.7 48.2,98 48.4,98.2 48.8,98 48.5,97.2 47.8,96.7 47.3,96.6 			"/>
			<g>
				<path class="st0" d="M76,49.5h-0.6l-0.1-1.1l0.3-0.3v-0.6h-1.8v-0.6l0.3-0.1l-0.4-0.1l-0.3,0.4l-0.1,0.4l-0.6,0.1v0.3h-0.4v0.7
					l-1.5,1.2l-2.9-0.1c-0.3,0.4-0.7,0-0.7,0c-0.1-0.3-0.8,0-0.8,0c0,0.6-1-0.3-1-0.3L63.6,48c-1.1-1-2.6,0.3-2.6,0.6
					c0,0.7-1.2,0.1-1.2,0.1s-1.1-0.3-1.2,0.1c-0.1,0.4-0.8,0.3-0.8,0.3l-0.1,0.3l-0.6,0.1L57,49.8l-0.7,0.1h1.5c0.4,0-0.1,1-0.4,0.8
					h-0.7L56.4,51h-0.7l-0.1,0.4h-1c0,0-0.6,0.4-0.6,0.7c0,0.1-0.1,0.7-0.3,0.7s-0.4,0.4-0.4,0.7c0.1,0.1-0.3,0.7-0.3,0.7v0.3
					l-0.3,0.1V56L52,56.4v0.8l-1,1l0.1,0.8l-0.8,0.8l0.1,0.8l-0.6,0.3v0.3l-0.3,1.1h0.6c0.3-0.1,0.3,0.7,0,0.8
					c-0.3,0.1-0.8,0.3-0.4,0.6c0.3,0.3-0.8,0.1-0.8-0.1c0-0.3-0.7-0.6-0.8-0.4s-0.4-0.4-0.4-0.4c-0.6-0.6-2.3,0-2.3,0l-0.3,0.8
					c-0.6,0.1-1,1.1-1,1.1c-0.4,0.1-0.8,0.7-0.7,1c0.1,0.1-0.3,0.3-0.3,0.3v1.1l-0.3,0.4v1.2c0.3,0,0.3,0.6,0.3,0.6
					c-0.6,0-0.4,0.7-0.4,0.7l-1.1,0.4l-0.3,0.3h-1.4l-0.4,0.4l-0.4-0.4h-2.6l-0.1-0.3L36.1,70v-0.6h-0.8l-0.1,0.3h-0.8
					c0,0.6-0.8,1.4-1,1.1s-0.7-0.8-0.4-1s1-0.3,1-0.3v-0.4h-1.9l-0.3,0.3H31v0.8l-0.3,0.6c-0.3,0.1,0,0.7,0,0.7c0.4,0.4,0,1,0,1
					c-0.3,0.3,0.3,1,0.3,1c0.4,0-0.3,0.4-0.3,0.4c0.1,0.6,0.4,0.7,0.4,0.7c-0.3,0.6,0.3,0.8,0.3,0.8v1l0.4,0.3v0.4l0.3,0.4h0.8v-1.4
					c-0.8-1,0.6-1.2,0.6-0.8c0,0.3,0.7,0.4,0.7,0.4c0.1,0.8,1,1.2,1.2,0.4s0.4-0.3,0.7,0c0.1,0.4,1.1,1.2,1.1,1.2H38l0.1,0.7
					c0.8,0,1.1,0,1.5,1.2s1.4,1.5,1.4,1.5h0.7c0-0.7,0.7,0.1,0.7,0.4s1.4,1.5,1.4,1.5l1.4,0.3l1.2,1.1l1-0.1h0.4
					c0.3-1,1.5,0,1.7,0.4c0.1,0.3,1,0.8,1.1,0.6s0.7-0.1,0.8,0.7c0.1,0.8,0.4,0.7,0.4,0.7h3l1.1-1h2.6c1.4,0,0.6-1.9,0.3-1.9
					c-0.4-0.4,0.1-1.9,0.1-1.9L55,77.9c-0.8,0-0.1-1.2-0.1-1.2c0.7-0.4-0.1-1.1-0.1-1.1c0.1-0.7-0.4-1.4-0.4-1.4
					c-1-0.7-0.7-1.8-0.7-1.8v-0.8c-0.8-0.7,0.3-0.8,0.3-0.8c0.4-0.7-0.3-1.1-0.3-1.1V69l-0.8-0.1l-0.1-2.3l-1.9-2.8
					c-0.4-0.1-0.1-0.7-0.1-0.7c0.4-0.3-0.1-1-0.1-1V61l1.1-0.1l0.3-0.4h0.6v-1.4c0.3-0.7,0.8-0.3,0.8-0.3h0.7l0.4-0.8l0.1-0.7h-0.4
					c-0.7-0.4-0.3-1.8-0.3-1.8c1-1.5,2.2-0.7,2.2-0.7h0.7c1.1,0.7,0.1,2.1,0.1,2.1c-0.1,0.3-0.1,1.4-0.1,1.4l0.1,1.8l-0.7,0.6
					c-0.6,0.3-0.6,1.1,0,1.2c0.4,0,0.3,1.1-0.4,0.4c-1,0,0.6,0.8,0.1,0.7c1,0.4,0.7-0.4,0.7-0.4l1.2-1c0.4-0.4,1.2,0.8,1.2,1
					c0,0.1,2.1,0,2.1,0C61.8,63,62,64,62,64c0.6-0.7,1.8,0,0.8,0.4c0.8,0.6,0.8,1,0.8,1c0.7-0.3,0.7,0.3,0.7,0.4s0.3-0.8,0.3-0.8
					c-0.8-0.6,1.1-0.8,0.6,0.3l-0.1,0.4l0.6,0.4v1.2c1.1-0.1,0.8-1.5,0.8-1.5l0.6-0.1c0-0.4,0.4-0.3,0.4-0.3
					c-0.4-1.8,0.8-2.1,0.8-2.1c0.7-0.1,0.7-1.7,0.7-1.7c-0.4-0.3-0.3-1,0.3-0.3S69,60.1,69,60.1l-0.4-0.4H68v-0.6h-1l-0.1,0.7
					l-0.4,0.1l-0.1-0.3l-0.1,0.6h-1v-0.7l0.6-0.1l0.3-0.3l0.1-0.8H67l0.8-0.3c0-1,0.6-0.7,0.6-0.7l0.3,0.3l0.4,0.4v0.3l-0.3,0.1v0.4
					l0.1,0.6h0.4c0.1-0.8,1.2-0.8,1.5-0.3l0.3-0.7c-0.7-0.4,0-1,0.1-0.7c0.3,0.3,0.7-0.7,0.7-0.7s0.4,0.4,0-0.1
					c-0.4-0.7,0.3-1,0.3-1c-0.1-0.7,0.7-0.6,0.7-0.6v-0.8h-0.7c-0.1,0.7-0.8,0.1-0.4,0c0.3-0.1,0.7-0.4,0.7-0.4v-0.6l0.3-0.1v-0.6
					h0.8l0.7-0.3l0.1-0.3h0.7l1.1-1l-0.1-0.4c-0.7,0,0-0.4,0-0.4L76,49.5z"/>
				<path class="st0" d="M55,60h-1v0.4h0.3c0.4,0.7,0,2.5,0,2.5s-0.7,0-0.7-0.3c-0.1-0.3-0.4,0.7-0.1,0.8c0.3,0.1,1,0,1,0.6
					c0,0.6,0.4-0.4,0.4-0.4V60C54.9,60,55,60,55,60z"/>
			</g>
			<polygon class="st0" points="54.6,64.7 54,64.3 54,65.6 54.9,66.7 55.1,65.8 55.3,65.5 54.9,65.3 55,64.5 55.3,64.5 55.3,64.1 
							"/>
			<polygon class="st0" points="55,67.3 55,67.8 55.4,67.8 55.4,67.2 			"/>
			<polygon class="st0" points="54.5,70.1 54.5,70.5 54.9,70.5 54.9,70.1 			"/>
			<g>
				<path class="st0" d="M55.6,68.8c0.1,0,0.3-0.1,0.3-0.3c0-0.1-0.1-0.3-0.3-0.3s-0.3,0.1-0.3,0.3S55.4,68.8,55.6,68.8"/>
				<path class="st0" d="M55.8,69.5c0.1,0,0.3,0.1,0.3,0.3s-0.1,0.3-0.3,0.3s-0.3-0.1-0.3-0.3S55.8,69.5,55.8,69.5"/>
				<path class="st0" d="M56,63.4c0.1,0,0.3,0.1,0.3,0.3S56.2,64,56,64s-0.3-0.1-0.3-0.3S55.8,63.4,56,63.4"/>
			</g>
			<polygon class="st0" points="73.1,58.9 73.3,58.2 73.3,57.8 73.4,57.5 74.1,57.2 74.1,56.1 73.8,56.1 73.7,55.8 73.1,55.7 73,56 
				72.8,56 72.7,56.4 73,56.4 73.1,56.8 72.8,56.9 72.8,57.2 72.3,57.3 71.5,58.2 71.3,58.6 71,59 70.8,59.8 69.7,59.8 69.5,60.8 
				69.7,61.6 70.6,62 70.6,61.5 71,61.4 71,60.8 71.3,60.4 71.6,60 71.7,59.6 72.1,59.3 72.8,59.1 			"/>
			<g>
				<path class="st0" d="M75.2,59.4v-0.7L75.1,58l-0.8-0.4l-0.6,0.6l-0.1,0.7v0.4L73,59.4l-0.1,1.4l-0.4,0.1v0.6l-0.4,0.3l-0.6,0.1
					l-0.1,0.7L71,62.9l-0.3,0.7L70.4,65c0,0,0.4,1,0.7,0.4c0.3-0.4,0.7-0.4,0.7-0.4l0.1-0.4h1.4c0.1-0.6,0.8-0.4,0.8-0.1
					s0.6,0,0.6,0l0.4-0.6h0.6v-0.7l0.3-0.1v-1c0.8-0.3,0.7-1.1,0.7-1.1l0.3-0.3l-0.1-0.4c-0.4-0.1-0.3-0.6,0-0.4
					c0.3,0.1-0.4-0.4-0.4-0.4c-0.3,0.3-0.6-0.3-0.6-0.3h-0.6L75.2,59.4L75.2,59.4z"/>
				<path class="st0" d="M76,65.8c0,0.7-0.8,0.8-0.8,0.8l-0.6-0.1l-0.2-0.3v-0.7h0.4l0.1,0.3C74.9,65.8,76,65.8,76,65.8z"/>
				<path class="st0" d="M78.8,62.5c0.1,0.4,0.1-0.7,0.3-0.7c0.3,0,0-0.7,0-0.7l-1,0.7C78.8,61.8,78.8,62.2,78.8,62.5"/>
				<path class="st0" d="M81.7,59.7c0.3,0.4,0.1,1.1,1,1.7c0.3,0.1-0.1,0.6-0.4,0.4s-1-1.4-1-1.4v-0.7
					C81.3,59.3,81.5,59.4,81.7,59.7"/>
			</g>
			<polygon class="st0" points="81.7,75.8 81.8,76 82,76.2 82.2,75.6 82,75.6 			"/>
			
				<rect x="87.8" y="73.7" transform="matrix(0.8506 -0.5258 0.5258 0.8506 -25.6781 57.3537)" class="st0" width="0.6" height="0.3"/>
			<g>
				<path class="st0" d="M103,85.2l0.4,0.3v1c0.7,0.7,2.6,0.1,2.6,0s-0.1-1.9-0.1-1.9l-0.3-0.3v-1.4c0.3-0.7-1-1.7-1.1-1.5
					c-0.1,0.3-0.8,0-0.8,0.3s-0.4,1.2-0.3,1.7c0.3,0.4-0.1,0.4-0.1,0.7C103.4,84.2,103,85,103,85.2"/>
				<path class="st0" d="M101.9,83.2c-0.1,0.4-0.4,0.7-0.7,0.4c-0.3-0.1,0.3,0.3,0.4,0.4c0.1,0.3,0.4,0.3,0.6,0c0.1-0.3,0-0.7,0.1-1
					C102.3,82.8,101.9,82.8,101.9,83.2"/>
			</g>
			<rect x="99.4" y="73.3" class="st0" width="0.4" height="1"/>
			<g>
				<path class="st0" d="M104.9,63.2c-0.3-0.3,1.1-0.8,1.2-0.3c0.3,0.7,0,0.6-0.3,0.4C105.7,63.4,105.2,63.6,104.9,63.2"/>
			</g>
			<polygon class="st0" points="105.9,56.4 106.6,56.5 106.6,56.1 106,56.1 			"/>
			<polygon class="st0" points="104.5,56.7 104.1,56.8 103.8,56.7 103.7,56.9 104.1,57.2 104.1,57.2 104.2,57.2 104.5,56.9 
				104.5,57.1 104.9,56.9 104.8,56.7 104.6,56.5 			"/>
			<g>
				<path class="st0" d="M106.4,44.1h-0.8c0,0,0.3,0.1-0.4-0.6c-0.7-0.7-1.2,0.1-1.2,0.1l-0.8,0.1v0.8l-0.4,0.1v0.6h0.6
					c0,0,0,0.7,0.1,0.4s1.5,0,1.4,0.7c0,0.3,1.2,1,1.1,1.8c0.7,0.1,0.6,0.8,0.6,0.8l0.8,0.1l0.3-0.6h0.3v-0.3l-0.6-0.1v-1.9
					l-0.4-0.3l0.1-0.4l-0.4-0.1l0.3-0.7L106.4,44.1z"/>
				<path class="st0" d="M108.8,49.5h-0.4l-1,0.1l-0.6,1c0,0,0.3,0.1,0.4,0.6c0.3,0.4,0.3,2.5-0.3,2.9c-0.7,0.4,0,0.1,0,0.1
					l-0.1,1.1c0.1,0.6,0.4,0.3,0.6,0c0.1-0.3,0.3-0.3,0.6-0.6c0.1-0.3,0.6-0.7,0.6-1.1s0.3-1,0.1-1.1c-0.1-0.1,0.1-1,0.1-1
					s0.1-0.4,0-0.8c-0.3-0.4,0-1,0.1-1.1L108.8,49.5z"/>
			</g>
			<polygon class="st0" points="109.5,51.7 109.7,51.7 109.7,51.3 109.5,51.3 			"/>
			<polygon class="st0" points="109.1,52.9 109.3,53.1 109.6,52.8 109.3,52.6 			"/>
			<g>
				<path class="st0" d="M108.9,48.9l-0.1-0.4c0,0,0-0.4,0.1-0.7s-0.3-0.4-0.4-0.4c-0.1,0-0.1-0.4-0.1-0.7s-0.4-0.4-0.4-0.4
					s-0.1-0.8-0.1-1c0-0.1-0.4-0.4-0.3-0.6c0.1-0.1,0.3-0.4,0.4-0.4c0.1-0.1-0.1-0.8,0.1-0.7c0.3,0.1,0.3,0.4,0.4,0.7
					c0.1,0.3,0,1,0.3,1.1s0,0.7,0.4,0.7s0.1,1,0.1,1s-0.1,0.7,0.1,0.8c0.3,0,0.1,1.4,0.1,1.4L108.9,48.9z"/>
				<path class="st0" d="M105.6,40.2c0.1,0.3,0.4,0.4,0.4,0.6c0,0.3-0.1,0.4,0.3,0.4c0.3,0,0.6,0,0.7,0.3c0.1,0.3,0.1,0.7,0,1
					c0,0.3,0,0.6,0.3,0.6s0.3,0,0.3,0.3c0,0.1,0.3-0.6,0.3-0.6c-0.3-0.3-0.4-0.7-0.4-0.7s-0.3-0.7-0.3-0.8s-0.4-0.3-0.6-0.3
					c-0.1,0-0.4-0.6-0.4-0.6L105.6,40.2z"/>
				<path class="st0" d="M106,39.8c-0.1-0.3-0.3-0.4-0.6-0.4c-0.3-0.1-0.4-0.3-0.6-0.3c-0.3,0-0.4-0.3-0.3-0.4
					c0.1-0.3-0.1-0.4-0.1-0.6s0.1-0.3,0.4,0c0.3,0.1,0.3,0.3,0.4,0.4c0.3,0.3,0.3,0.6,0.6,0.4c0.3,0,0.4,0.4,0.6,0.3
					c0.3-0.1,0.1,0.4,0.1,0.4L106,39.8z"/>
				<path class="st0" d="M99.9,45.7c0.3,0.3-1.5,0.3-1.5,0s0.1-1,0.7-0.8c0.4,0.1,0.6-1,0.6-1s-0.4,0,0-0.1c0.4-0.3,0-0.6-0.1-0.7
					s-0.3-0.4-0.3-0.4h0.7c0.3-0.3,0.4-1.2,0.4-1.2c0.7,0.3,1-0.3,1-0.3s0.1,0.3,0.3,0.6c0.1,0.3-0.6,0.4-0.3,0.6
					c0.3,0.1,0.4,0.7,0.3,0.8c-0.1,0.1-0.7,0-0.7-0.1c0-0.3-0.3,0.3,0,0.6s-0.3,0.7-0.4,0.7c-0.1,0-0.8,0.1-0.3,0.4s1.2,0.1,1.2,0.1
					s0.4,0,0.7,0.3c0.1,0.3,0,0.3-0.3,0.3s-1.5-0.1-1.5-0.1S99.8,45.6,99.9,45.7"/>
				<path class="st0" d="M96.6,46.3c0.3,0,0.8-0.1,1,0s-0.4,0.4-0.4,0.4l-0.7,0.1C96.3,46.6,96.3,46.3,96.6,46.3"/>
				<path class="st0" d="M103.4,41.9c0.4-0.3,1.2-0.3,1.2-0.6s0.6-0.4,0.6-0.4l0.1,0.7l0.4,0.3v0.6c0,0,0.1-0.1-0.4,0
					s-0.3,0.4-0.3,0.4h-1.2v-0.4L103.4,41.9z"/>
				<path class="st0" d="M101.3,39c0.3,0-0.1,1.2,0.7,1.1s0,0.4,0.7,0.4s0.4-0.4,0.7-0.8c0.3-0.4,0.1-0.6-0.3-0.7
					c-0.4-0.1-0.4-0.1-0.4-0.6c-0.1-0.4-0.6-0.6-0.6-0.6l-0.1-0.7l-0.7,0.4l-0.7,1C100.6,39.2,101,39,101.3,39"/>
			</g>
			
				<rect x="102.7" y="43.2" transform="matrix(0.4518 -0.8921 0.8921 0.4518 17.736 115.553)" class="st0" width="0.4" height="0.3"/>
			<rect x="102.1" y="43" class="st0" width="0.3" height="0.4"/>
			<polygon class="st0" points="102.1,35.9 102.1,36.3 102.4,36.3 102.4,35.8 			"/>
			<rect x="101.5" y="40.8" class="st0" width="0.3" height="0.3"/>
			<polygon class="st0" points="100.6,40.5 100.6,40.8 101.2,40.8 101.2,40.5 			"/>
			<polygon class="st0" points="96.1,45.7 96.3,45.9 96.5,45.6 96.2,45.5 			"/>
			<polygon class="st0" points="94.7,44.6 94.7,44.9 95.2,44.9 95.2,44.6 			"/>
			
				<rect x="84.4" y="44.9" transform="matrix(0.999 -4.389111e-02 4.389111e-02 0.999 -1.8933 3.7709)" class="st0" width="1.1" height="0.3"/>
			
				<rect x="83.6" y="44.8" transform="matrix(0.9746 -0.2238 0.2238 0.9746 -7.9588 19.8838)" class="st0" width="0.3" height="0.6"/>
			<polygon class="st0" points="83.3,45.3 83.5,45.6 83.6,45.6 83.6,45.3 			"/>
			<g>
				<path class="st0" d="M86.1,44.8v0.4h0.6c0,0,0.3,0.3,0.3,0.4c0,0.1,0.4,0.3,0.6,0.3c0.1,0,0.8-0.4,0.8-0.4s0.3-0.7,0-0.7
					c-0.1,0-0.7,0.4-0.7,0c0-0.3-0.7-0.1-0.7-0.1L86.1,44.8z"/>
				<path class="st0" d="M88.7,44.2c0,0.1-0.1,0.4,0.3,0.4c0.3,0,0.8-0.3,1,0.1c0,0.3,0,0.6,0.4,0.7c0.4,0.1,0.7,0.3,1,0.3
					s1-0.1,1-0.1s0.7,0.1,0.8,0.3c0.6,0.6,1,0.7,1.1,0.4s0-0.8-0.1-1.1c0-0.3-0.8-1.2-1.1-1c-0.3,0.3-0.3,0-0.8,0.1
					c-0.4,0.1-1.5,0-1.5-0.1c0-0.3-0.8-0.3-0.8-0.6s-0.6-0.4-0.4-0.1c0,0.3-0.4,0.4-0.4,0.4C89,43.7,88.7,44.2,88.7,44.2"/>
				<path class="st0" d="M100.8,37.3l0.4-1.1c-0.6-0.1-0.4-0.7-0.4-0.7c0-0.4-0.8-1-1.1-0.8s-0.1-1.1-0.1-1.1s0.4-0.3,0.7-0.1
					c0.3,0.1-1.8-2.6-2.2-2.3s-1.4-0.3-1.2-0.7c0-0.4-1.9-2.1-1.9-2.1s-0.7-0.6-0.7-0.3c-0.1,0.3-0.3,0.6,0,0.7
					c0.3,0.1,0.3-0.3,0.7,0.1c0.4,0.4,1.1,0.8,0.8,1.1s-0.6,0.4-0.6,0.4l0.4,0.4h0.6l0.1,1c0,0,0.7,0.3,0.8,0.7s0.1,0.6,0,0.8
					s-0.4,0.6-0.4,1s0.4,0.6,0.4,0.6h0.4l0.3,0.1v0.7c0.4-0.1,1.1,0.4,1.1,0.8s0.1,0.1,0.7,0.6c0.6,0.4,0.4,0.4,0.7,0.7
					C100.3,38,100.6,37.9,100.8,37.3"/>
				<path class="st0" d="M92.2,30.1c0-0.3-0.1-1,0.1-1s0.1,0,0.4,0.1c0.4,0.1,0.4-0.3,0.4-0.3h0.6l0.7,0.6l-0.1,0.4h-0.6
					c-0.3-0.4-0.8-0.3-0.7,0.1c0.1,0.4-0.3,1.1-0.4,1.1c-0.3,0-0.8,0-0.8-0.3C91.9,30.8,92.2,30.1,92.2,30.1"/>
				<path class="st0" d="M91.8,28.7v-0.4c0,0,0-0.4-0.3-0.4s-0.7-0.3-0.7-0.6c0.1-0.3-0.8-0.4-0.8-0.4s-0.8-0.8-0.6-0.7
					c0.3,0.1,0.1-0.4,0.1-0.4s-0.7,0.1-0.8,0c-0.1,0-0.1-0.6-0.1-0.6s-0.7-0.1-0.7,0s0.3,0.1,0.3,0.4c0.1,0.3,0,0.8,0.6,1
					c0.4,0.1,0.6,0.3,0.7,0.4c0,0.3,0.7,0.3,0.7,0.3l0.4,0.3L91.8,28.7z"/>
			</g>
			<polygon class="st0" points="85.6,23.2 86.1,23.2 86,22.8 85.6,22.8 			"/>
			<g>
				<path class="st0" d="M86,21c-0.6-0.4,0.7,0.3,0.7,0.3c0.4,0,0.7,0.3,0.7,0.6C87.4,22,88,22,88,22v-0.4L87.6,21l-0.3-0.3
					c0,0-0.6,0-0.6-0.3C86.5,20.4,86.1,21.1,86,21"/>
				<path class="st0" d="M95.5,21.4c-0.1,0.4-0.3,1.1-0.4,1.1c-0.1,0-0.1,0.7-0.1,0.7s0.7,0,0.8,0s0.1,0.6,0.1,0.6
					c0.8,0,1.1,1,1,1.2c-0.1,0.3,0.3,0.3,0.3,0.3s0,0.8-0.1,1.1c-0.1,0.3,0.7,0.4,0.8,0.7c0.1,0.3-0.1,1.4-0.3,1.4
					c-0.1,0,0.4,0.3,0.4,0.4c0,0.3,0.1,0,0.3,0.4c0,0.4,0.1,1.4,0.1,1.4h0.7c0.1-0.7,1.5-0.7,1.7-0.7c0.8,0.3,1.5,1.7,1.5,2.1
					c0,0.3-0.6,0.4-0.6,0.4l0.1,1.5c0.8,0.3,1.7,1.5,1.5,1.8c-0.1,0.3,0.7,0.1,0.7,0.1c0.1-1,1-0.7,1.1-0.3c0,0.3,0.3,1,0.3,1
					l0.3,0.4l0.4,0.4h0.6l0.1,0.3l0.7,0.1c0,0,0.6,0.7,0.7,0.8c0,0.1,0.8,0.1,1.1,0.1s0.6,0.3,0.6,0.4c0,0.3,0.4,0.7,0.4,0.7
					s0.6,0.1,0.7,0.4c0,0.3,0.3,0.7,0.3,0.7l0.6,0.4v0.4h0.6l0.1,0.7h1l0.6-0.4c0.7-0.4,1.1-0.8,1.2-1.1c0-0.3,0.1-1,0.7-0.8
					s0.1-1.1,0.1-1.1s-0.7-0.6-0.7-0.8s-0.7-0.8-0.7-1c0-0.3-0.7-0.7-0.7-0.8c0-0.3-0.4-0.8-0.4-0.8l-0.8-0.7l-0.1-0.4h-0.7
					l-1.2-1.5v-0.4h-0.4V32l-0.4-0.3h-0.6l-1.1-1.2l0.1-0.8h-0.6l0.1-1.1c0.4-0.4,0.1-1.4,0.1-1.4s-0.7,0.4-1.1,0.3
					c-0.4-0.1,0.1-0.6,0.1-0.6v-0.4l-0.3-0.3c0,0-0.8,0.1-1,0c0-0.1-0.3-0.8-0.3-0.8v-1l-0.4-0.3v-0.3h-0.6v-0.6l-0.3-0.1l-0.3-0.1
					v-0.8h-1.1l-0.4-0.6l-0.4-0.7l-1.2-0.1l-0.3-0.3l-0.6-0.1l-0.4-0.1l-0.1,0.3h-1v0.3C97.7,21.4,95.6,21.1,95.5,21.4"/>
				<path class="st0" d="M101,20c-0.1-0.4,1.1-0.8,1.2-0.4c0.3,0.3,1,0.4,1.1,1.9c0,0.6-1-0.6-1-0.6l-0.8-0.3
					C101.3,20.4,101,20.3,101,20"/>
			</g>
			<polygon class="st0" points="85.4,20.4 85.7,20.6 85.8,20.2 85.6,20 			"/>
			<g>
				<path class="st0" d="M82.9,15.5l-0.7-0.7v-0.7l-0.3-0.3l-0.1-0.7l-0.7-0.3l-0.7,0.3l-0.7,0.4l-0.8,0.1L78.5,14l1.8,0.4l0.3,0.6
					l1.2,0.1l0.8,0.8C83.2,16.2,83.3,15.7,82.9,15.5"/>
				<path class="st0" d="M82.9,12.8c-0.1-0.4-0.8,0.6-0.1,0.8c0.7,0.3,1.4,0,1.4,0l0.1-0.3h2.6c0.1-0.3,0.3-0.6,0.3-0.6
					s0.7-0.3,0.8-0.1c0.3,0.1,0-0.7-0.3-0.7c-0.3,0.1-0.8,0-0.8,0h-1c0-0.4-0.8-0.3-1,0c0,0.3-0.4,0.3-0.4,0.3l-1.2,0.1
					C83.6,12.8,82.9,13,82.9,12.8"/>
				<path class="st0" d="M77.7,21.8c0.8,0.3,1.1,0,1.1-0.1c0-0.3,0.1-0.3,0.4-0.3s0-0.7-0.4-0.7c-0.3,0-0.7-0.1-0.7-0.4
					s-0.6-1-0.7-0.4c-0.1,0.6-0.4,0.6-0.3,1C77.3,21.1,77.5,21.7,77.7,21.8"/>
				<path class="st0" d="M71.7,22.4c0-0.1,1.1-0.3,1.2,0c0.1,0.1,0,0.4,0.6,0.4c0.4,0,0.3,0.3,0.3,0.4s-0.6,0.1-0.7,0
					c0-0.1-0.8-0.3-0.8-0.3S71.7,22.6,71.7,22.4"/>
			</g>
			<polygon class="st0" points="89,11.3 88.7,11 88.6,11.3 88.9,11.6 89,11.7 89.2,11.6 89.7,11.2 89.4,11 			"/>
			<polygon class="st0" points="86.5,10.1 86.2,9.8 86.1,10.1 86.5,10.3 86.5,10.3 86.7,10.3 87.2,9.9 87.1,9.7 			"/>
			<polygon class="st0" points="84.3,21.1 84.7,21.3 85,21.8 85.3,21.5 85,21 84.9,21 84.9,21 84.3,20.9 			"/>
			<g>
				<path class="st0" d="M67.6,35.8v0.6h0.8c0.3,0-0.3-0.4-0.3-0.4S67.6,36.1,67.6,35.8"/>
			</g>
			<polygon class="st0" points="68.6,35.8 68.8,36.1 69.1,35.8 68.8,35.5 			"/>
			<polygon class="st0" points="59,25.8 59.4,26.1 59.6,26 59.3,25.6 			"/>
			<polygon class="st0" points="73.5,94.2 73.9,94.3 73.8,94.5 74.1,94.7 74.4,94.5 74.5,94.2 74.2,94.2 73.7,94 			"/>
			<polygon class="st0" points="69.7,90.3 69.5,90.5 69.7,90.7 70.1,90.8 70.2,90.7 70.1,90.5 70.2,90.3 69.9,90.1 			"/>
			<g>
				<path class="st0" d="M109.2,80.2c0-0.3-0.4-0.4-0.4-0.4l-0.1,0.3c0,0,0,0,0.1,0v0.3v0.1l0.3,0.3
					C109.1,80.7,109.2,80.3,109.2,80.2L109.2,80.2z"/>
			</g>
			<polygon class="st0" points="109.1,79.2 109.6,79.2 109.6,78.8 109.2,78.8 			"/>
			<g>
				<path class="st0" d="M121.8,75.2c0.3-0.1,0.6-0.4,0.4,0.1c0,0.6-0.3,0.4-0.4,0.6C121.5,76.1,121.5,75.2,121.8,75.2"/>
				<path class="st0" d="M124.4,73C124.4,73,124.4,72.8,124.4,73c0-0.1,0-0.3-0.1-0.4l-0.3,0.1c0,0.1,0,0.1,0,0.3
					c0,0.1,0,0.1,0.1,0.3c0,0,0.1,0,0.3,0V73C124.4,72.8,124.4,72.8,124.4,73"/>
				<path class="st0" d="M123.7,73.1c0.1,0.3,0.1,0.7,0.1,0.7l0.3-0.1c0,0-0.1-0.3-0.1-0.6H123.7z"/>
				<path class="st0" d="M122.6,74.5h-0.3c0,0.3,0,0.6,0.3,0.6v-0.3l0,0C122.6,74.6,122.6,74.5,122.6,74.5"/>
				<path class="st0" d="M121.2,68.1c0-0.1-0.1-0.1-0.1-0.3c-0.3-0.1-0.7,0.1-0.8,0.1l0.1,0.3c0.1-0.1,0.4-0.1,0.6-0.1l0,0H121.2z"
					/>
				<path class="st0" d="M106.7,51.1c-0.3,0.3-0.7,0.3-0.7,0.3l-0.1,0.6l-0.3,0.3c0,0,0,0.1,0,0.6c0,0.4-0.6,0.6-0.6,0.6l-0.1,0.3
					c0,0-1.2,0-1.4,0c-0.4-0.3-0.1-0.8,0.1-0.8s0-1,0-1h0.4c0,0,0-1,0.3-1c0.1,0,0-0.3-0.3-0.4c-0.3-0.1-0.4-0.7-0.7-0.7
					c-0.1,0-1.1,0-1.1,0l-0.1,0.3l-0.6,0.1c0,0,0,0.4,0,0.6c-0.3,0.4-1.5,1.1-1-0.1l0.1-0.3V50h-1c0,0-0.4-0.1-0.4-0.4s0-0.4,0-0.4
					l-1.4-1.4l-1.2-0.1l-0.1-0.3l-0.8-0.1c-1-0.4-1.8,0-1.7,0.7c0.1,0.8,0.4,1.1-0.1,1.1s-0.7-0.4-0.7-0.4s-0.4-0.1-0.4,0
					c0,0.3-0.1,0.7,0,0.8c0.1,0.3-0.3,0.6-0.4,0.4c-0.1-0.1-0.6-0.7-0.4-0.8c0.1-0.1-0.7-1.1,0.1-1.4c0.8-0.1,0-0.7,0.3-0.7l0.4-0.3
					h0.4l0.3-0.3l-0.7-0.1h-0.4h-0.8c-0.8,0.6-1,1.1-1,1.1c-0.4,0.8-1.4-0.3-1.1-0.7c0.4-0.4-1.1,0-1.4,0.1
					c-0.3,0.3-1.1,0.1-1.1,0.1c-0.1,0.4-0.8,0-0.7-0.4c0.3-0.3,0.3-0.6,0.3-0.6h-0.2l-0.3,0.6c-0.7,0-1,0.4-0.8,0.7
					c0.1,0.3-0.3,0-0.3,0.3c-0.1,0.4,0,0.4,0.4,0.6c0.3,0.1-0.1,0.1,0,0.4c0.3,0.3,0.8,0,0.4,0.4c-0.4,0.4-1.1,0.3-1.1,0.3
					c0,0.4-1.1,0.4-1.1,0.3c-0.1-0.1-0.8-1.1-0.8-1.1h-1c-0.1-0.7,0.4-0.4,0.7-1s0.3-1.5,0.3-1.5s-0.8,0-0.8,0.3s-0.6,0.4-0.6,0.4
					S81,46.7,81.1,47c0.1,0.3-0.3,0.3-0.3,0.3s0.1,0.3,0,0.4c-0.4,0.4-1.5,0-1.7-0.1l-0.7-0.3l-0.7-0.4L77,47.2l-0.3,0.3H76v0.7
					l1.4,0.1l0.1,1.4l-0.6-0.1h-0.4l-0.1-0.3h-0.3v0.8l0.3,0.3l0.3,0.3h0.6l0.1,0.7h1.2l0.1,0.3h0.8l1.5,1.5l-0.1,0.4l-0.3,0.1
					c0.1,0.4-0.7,0.1-0.7,0.1v0.3h0.4l0.4,0.3l0.6-1c0.6-0.4,0.8,0.1,0.8,0.4c0,0.3-0.3,0.3-0.3,0.3v0.7l0.3,0.1
					c0.6,0.7-0.3,1-0.3,1l-0.1,0.6C81.6,57,81,57,81,57l-0.3,0.3L80,57.4l1.2,0.1c0.1-0.4,0.4-0.6,0.6-0.3s0.1,0.6,0.1,0.6h0.3v0.6
					l0.6,0.4v1.7l0.4,0.4c0.7-0.3,0.7,0.1,0.3,0.4c-0.3,0.3-0.1,1.1-0.1,1.1l-0.3,0.3v0.4l-0.3,0.3V64c-0.6-0.3-1.1-0.1-1.2,0
					c-0.4-0.3-1.5-0.3-1.5,0c0.3,0.4-0.4,0.6-0.4,0.6L79.3,65c0.3,0.6-0.3,0.6-0.3,0.6v1l-0.7,0.6v1.4c0,0.4,0.8,0.4,1,0.3
					c0.1-0.3,0.8,0.4,0.8,0.4h0.4l0.1-1l-0.3-0.1v-1.5l0.6-0.6c0.7-0.3,0.4,1.4,0.4,1.5c0,0.6,0.3,0.6,0.6,0.4
					c0.6-0.3,0.1,0.6-0.3,0.6s-0.1,0.6-0.1,0.6l0.3,0.1l-0.4,0.4L81,70.1L80.4,70h-0.7l-0.3-0.4H79v0.7l-0.3,0.3L78,71.3
					c0.8,0-0.1,0.6-0.3,0.6c0.4,0.1,0,0.7-1.2,0.3v0.4h-0.4l0.4,0.4h0.4l-0.1,1c0,0.7-1.7,0.3-1.9,0v1h-0.3v0.2v1l0.6-0.1v0.4h1.4
					l2.1-2.2l1.2-0.3c0.1-0.6,0.7,0.1,0.7,0.1c0.6,0,0.7,0.3,0.7,0.3l0.7,0.1c0.6,0.1,0.3,0.3,0.3,0.4c0,0.3,0.3,0.3,0.3,0.3
					l0.1-0.7H83l-0.3-0.4L82,74l-0.7-0.3c-0.4-0.6,0.1-0.4,0.6-0.4h0.7c0,0,0.8,1.1,0.8,1.4s0.4,0.3,0.4,0.3h0.4l0.1,0.4h0.4
					l0.1,0.3h1v-0.5L85,75.1v-0.6l-0.7-0.3c-0.3-1,0.1-1.1,0.4-0.7H85l-0.1-0.8l0.4-0.1l-0.1-1.1l-0.3-0.1V71h1.2c-0.1-0.7,0-1,0-1
					h0.4v0.2l1.7,0.1l1.1-1.2c0-0.1,0.1-0.1,0-0.3s-0.4,0-0.7-0.1s0-1.1,0-1.2c0-0.3,0.8-0.6,0.7,0c-0.1,0.4,0,0.7,0,0.7
					c0.7-0.7,1.2,0,1.2,0.3c0,0.1,0.4,0.3,0.6,0.1c0.3-0.1,0.6,0.4,0.4,0.8c-0.1,0.3-1.1,0.3-1.1,0s-0.3-0.3-0.3,0
					c-0.1,0.1-0.6,0.3-0.8,0.1c0,0-0.1,0-0.1-0.1l-1.1,1.2h0.1c0.7,0.4,0.3,0.8,0.1,1c-0.3,0.1-0.6,0.1-0.6,0.1L87.6,72l-1.4,0.1
					l-0.1,0.6c-0.7-0.1-1,0.7-0.8,1c0.1,0.4,0,0.7,0,0.7l0.6,0.3l0.7-0.3c0.1-0.6,0.6-0.7,1-1s1.1,0.6,0.8,1s-0.3,0.6-0.3,0.6v0.4
					l-0.6,0.3L87.1,76v0.3h-1.4l-0.3,0.3h-0.7l-0.3,0.3H84c0,0-0.8,0.4-0.4,0.8c0.3,0.4-1.2,0.4-1.7-0.3c-0.1,0.6-0.7,0-0.7,0
					l-0.6-0.1v-0.8c-0.1-0.6-1.1-0.6-1.1-0.1s-1.9,0.1-1.9,0.1l-0.1,0.4l-0.6,0.3v0l-1,0.1l-0.4,0.3l-0.1-0.3H75l-0.4,0.6
					c-1.1,0-2.2,0.7-2.1,1s-0.4,0.6-0.4,0.6h-0.6l-0.3,0.4l-0.7,0.3l-0.1,1.1l-0.3,0.3V82l-0.4,0.1v0.3h-0.3l0.3,0.8l0.4,0.3
					c0.7,0.1,0.4,1,0.4,1h0.4l0.3,0.6l0.4,0.8c0.1,0.7,0.7,0.4,0.8,0.4c0.3,0,0.4,0.7,0.4,0.7h2.1c0,0-0.1,0.3,0.3,0.3
					c0.4,0.1,2.8,0.3,2.9,0c-0.1-0.4,1.2-0.6,1.9-0.1c0.6,0.4,1.4,0.1,1.4,0.1l0.8,1l0.6,1.1l0.8,0.3l0.7,0.1l0.3,1H85l0.1,0.6
					c0.6,0.4-0.1,1.4-0.1,1.4v1.1l0.4,0.3v0.4l0.7,0.7h0.8l1.9,2.1l1.5,0.4l0.3,0.8H91l0.3-0.3h1.2l0.7-0.6l0.7-0.1l5.8-5l-0.6-0.3
					v-1.1c1-0.7,1-1.9,0.1-2.1c-0.7-0.1-0.4-0.8,0.3-1l0.4-0.1v-0.1l1.2-1.1V86l-2.8-2.2c-1.1-0.4,0-3,0.8-2.9c0.8,0,0-3.9,0-3.9
					l-0.4-0.3l0.1-1.2h-0.6l-1,1.2l-0.3,0.8c-0.1,1.1-3.3,1-3.5,0.7c-0.1-0.1-1.2-0.7-1.2-0.7s-0.8-0.7-1-0.4s-0.8-0.3-0.8-0.1
					s-0.7-0.4-0.7-0.4l-1.1-0.4l0.8-0.1L89,75.5l1.4,0.7c0.1,0.3,0.8,0.1,0.8,0.1l0.3,0.3c0,0,0.4,0,0.7,0.3s1.7,0,1.7,0l0.4,0.3
					l0.6,0.3h1.7v-1l0.3-0.3v-0.7l0.4-0.3v-0.6l0.3-0.1v-1.3h0.3v-2.5L97.1,70c0,0.3-0.8,0.3-0.8,0.3s-0.3,0.4-0.4,0.4
					c-0.1,0,0.3,0.4,0.1,0.8c-0.1,0.3-0.6,0.3-0.6,0.3l-0.8,0.3l-0.3,0.3h-0.8l-0.1-0.7l1-0.3l0.6-0.3l0.3-0.6
					c0-0.6,0.7-0.4,0.7-0.4s1.2-1,1.2-1.5c0-0.4,0.4-1.8,1.2-1.8h1.4c0.6-0.3,0.4-1,0.4-1l0.7-0.1l0.1,0.4c0,0,1,0.1,1.1,0
					s0.3-0.6,0.6-0.4c0.3,0.1,1.1-0.4,1.1-0.4c0-0.4,1.4-0.3,1.4-0.3l0.1-0.4c0,0-0.8-1.2-1.1-1.2c-0.1,0-1-0.7-1.1-0.4
					c-0.8-0.3-0.8-1.4-0.8-1.4l-0.3-0.7c0-0.4-0.8-1.4-1-1.2c-0.8-0.6-0.1-1.2,0-1.4c0.3,0,0.7-0.8,0.7-0.8l0.3-0.7l0.8-0.3l0.1-0.7
					h-0.4c0,0,0.6-1,0.8-1c0.3,0,1.9,0,2.2-0.1c0.1-0.1,0.4-1,0.4-1.1s0.4-0.3,0.6-0.3s0.6-0.4,0.7-0.7
					C107.3,52.2,106.8,50.8,106.7,51.1"/>
				<path class="st0" d="M77.7,70.2c0.1-0.1,0.1,0.3,0.3,0.1c0.1,0,0.3,0.3,0.1,0.3S78,70.7,78,70.9s0,0.3-0.1,0.4s-0.3,0-0.4,0
					c-0.1-0.1-0.3-0.1-0.4-0.1c-0.1,0,0,0.3,0,0.3s-0.8,0-0.7-0.1s0.3-0.1,0.1-0.3s0-0.1,0-0.3s0.4-0.1,0.3-0.1
					c-0.1-0.1,0-0.6,0.1-0.3l0.1-0.3c-0.1-0.1,0-0.1-0.3-0.3s0-0.6,0-0.6v-0.3c0.1-0.4,0.8-0.4,1-0.1c0,0.4,0,0.6,0,0.6l0.3,0.1
					c0,0,0,0.3-0.3,0.3C77.6,69.8,77.7,69.8,77.7,70.2L77.7,70.2z"/>
				<path class="st0" d="M75.1,70.6c0.1-0.3,0.4-1.2,0.7-1s0.6,0,0.6,0s0.1,0.1,0.1,0.4c-0.1,0.3-0.1,0.7-0.4,0.7
					c-0.1,0-0.4,0.1-0.6,0.1C75.2,71.2,75.1,70.6,75.1,70.6"/>
			</g>
		</g>
		<g>
			<path class="st0" d="M276.1,21.8h6.4v32.1h-6.4V21.8z M171.3,21.8h6.4v32.1h-6.4V21.8z M265.8,47.6h-4.6V28.3h-6.5v19.3h-4.6v6.3
				h4.6h6.5h4.6h6.4v-6.3V21.8h-6.4V47.6z M191.7,47.6h-3.3V34.7h3.3V47.6z M205.9,21.8v6.4v19.3h-7.8v-13v-6.2h-6.4h-3.3H182v6.4
				v12.9V54h6.4h3.3v10h6.4V54h7.8h6.4h7.8h6.4h3.3h6.5h3.3h6.4v-6.4V34.7h-6.4v12.9h-3.3V34.7h-6.5v12.9h-3.3V34.7h-6.4v12.9h-7.8
				V28.3h33.5v-6.5h-33.5C212.3,21.8,205.9,21.8,205.9,21.8z"/>
			<path class="st0" d="M171.3,74.7h16v6.2H178v10.2h8v6.1h-8v11.2h9.8v6.2h-16.5V74.7z M201,89.2l4.1,4.9c3.6,3.3,5.1,7.2,5.1,11.8
				s-2.4,9.5-9.6,9.5c-4.9,0-9.5-2.9-9.5-8.8v-5.1h6.5v4.1c0,1.5,0.3,3.9,2.9,3.9c2,0,2.9-1.5,2.9-3.8c0-2.8-1.1-4.9-3.3-7l-4.7-5.4
				c-2.3-2.1-4.2-5.1-4.2-10.3c0-6,3.4-9.1,9.1-9.1c4.6,0,9.3,1.6,9.3,8.8v4.5h-6v-3.6c0-2.6-0.8-4.2-2.9-4.2c-2,0-2.9,1.1-2.9,3.3
				C197.8,84.2,198.1,86.3,201,89.2 M232.5,105.7c0,6-3.4,9.6-9.3,9.6c-5.7,0-9.3-3.6-9.3-9.5V83.6c0-6,3.6-9.6,9.3-9.6
				c5.9,0,9.3,3.6,9.3,9.5v5.7h-6.7v-6.5c0-1.8-0.8-2.9-2.6-2.9s-2.6,1.1-2.6,2.9v24c0,1.8,0.8,2.9,2.6,2.9s2.6-1.1,2.6-2.9v-7.8
				h6.7V105.7z M235.5,74.7h6.6l3.3,29.5h0.2l3.1-29.5h6.3l3,29.5h0.1l3.3-29.5h6.7l-6.2,39.9h-7.2l-2.9-27h-0.2l-3.1,27h-7.2
				L235.5,74.7z M280,101.1l-2.1-21.2h-0.2l-2.3,21.2C275.4,101,280,101,280,101.1z M273.8,114.6h-6.9l6.2-39.8h9.1l6.2,39.8h-7
				l-0.8-7.8h-6L273.8,114.6z"/>
		</g>
	</g>
</g>
</svg>
